<svg width="42" height="42" viewBox="0 0 42 42" fill="none" xmlns="http://www.w3.org/2000/svg">
<g filter="url(#filter0_b_323_2992)">
<rect x="1" y="1" width="40" height="40" rx="12" fill="white" fill-opacity="0.15"/>
<path d="M21 22.4L16.1 27.3C15.9167 27.4834 15.6834 27.575 15.4 27.575C15.1167 27.575 14.8834 27.4834 14.7 27.3C14.5167 27.1167 14.425 26.8834 14.425 26.6C14.425 26.3167 14.5167 26.0834 14.7 25.9L19.6 21L14.7 16.1C14.5167 15.9167 14.425 15.6834 14.425 15.4C14.425 15.1167 14.5167 14.8834 14.7 14.7C14.8834 14.5167 15.1167 14.425 15.4 14.425C15.6834 14.425 15.9167 14.5167 16.1 14.7L21 19.6L25.9 14.7C26.0834 14.5167 26.3167 14.425 26.6 14.425C26.8834 14.425 27.1167 14.5167 27.3 14.7C27.4834 14.8834 27.575 15.1167 27.575 15.4C27.575 15.6834 27.4834 15.9167 27.3 16.1L22.4 21L27.3 25.9C27.4834 26.0834 27.575 26.3167 27.575 26.6C27.575 26.8834 27.4834 27.1167 27.3 27.3C27.1167 27.4834 26.8834 27.575 26.6 27.575C26.3167 27.575 26.0834 27.4834 25.9 27.3L21 22.4Z" fill="white"/>
<rect x="0.5" y="0.5" width="41" height="41" rx="12.5" stroke="white" stroke-opacity="0.25"/>
</g>
<defs>
<filter id="filter0_b_323_2992" x="-4" y="-4" width="50" height="50" filterUnits="userSpaceOnUse" color-interpolation-filters="sRGB">
<feFlood flood-opacity="0" result="BackgroundImageFix"/>
<feGaussianBlur in="BackgroundImageFix" stdDeviation="2"/>
<feComposite in2="SourceAlpha" operator="in" result="effect1_backgroundBlur_323_2992"/>
<feBlend mode="normal" in="SourceGraphic" in2="effect1_backgroundBlur_323_2992" result="shape"/>
</filter>
</defs>
</svg>
