<svg width="43" height="22" viewBox="0 0 43 22" fill="none" xmlns="http://www.w3.org/2000/svg">
<path d="M4.15699 11C4.15699 7.409 7.07599 4.49 10.667 4.49H19.067V0.5H10.667C4.87099 0.5 0.166992 5.204 0.166992 11C0.166992 16.796 4.87099 21.5 10.667 21.5H19.067V17.51H10.667C7.07599 17.51 4.15699 14.591 4.15699 11ZM12.767 13.1H29.567V8.9H12.767V13.1ZM31.667 0.5H23.267V4.49H31.667C35.258 4.49 38.177 7.409 38.177 11C38.177 14.591 35.258 17.51 31.667 17.51H23.267V21.5H31.667C37.463 21.5 42.167 16.796 42.167 11C42.167 5.204 37.463 0.5 31.667 0.5Z" fill="black"/>
</svg>
