<svg width="239" height="283" viewBox="0 0 239 283" fill="none" xmlns="http://www.w3.org/2000/svg">
<path d="M174.536 122.754C177.979 117.302 186.874 123.615 188.022 133.084C190.031 143.127 183.431 170.962 169.944 177.275" stroke="#E5E7EB" stroke-width="2"/>
<path d="M63.841 122.764C60.3976 117.312 51.5022 123.625 50.3544 133.094C48.3457 143.137 54.9456 170.972 68.4321 177.284" stroke="#E5E7EB" stroke-width="2"/>
<path d="M118.007 47C76.2273 47 62.052 82.4859 60.3303 100.372C59.2255 111.85 58.6086 139.684 61.1912 145.997C64.3476 155.18 68.4935 192.483 68.9388 195.065C70.6209 204.822 90.4599 222.612 91.3207 223.186C92.1816 223.76 102.302 233.839 106.529 234.951C111.981 236.386 124.894 236.96 130.92 234.951C137.519 233.803 144.119 225.195 147.276 222.612C149.284 220.604 168.036 204.822 169.945 195.065C172.583 181.579 174.923 155.18 177.118 145.997C180.275 132.798 179.414 110.989 178.266 98.6507C175.397 81.4338 162.197 47 118.007 47Z" fill="white" stroke="#E5E7EB" stroke-width="2"/>
<path d="M93.5 65L104.5 106.5M93.5 65H145M93.5 65L66.5 80M104.5 106.5H134M104.5 106.5L93.5 120M104.5 106.5L66.5 80M134 106.5L145 65M134 106.5L145 120M134 106.5L173 80M145 65L173 80M93.5 120L119 143.5M93.5 120H74M119 143.5L145 120M119 143.5L144 158M119 143.5L95.5 158M119 143.5L128.5 171M119 143.5L109.5 171M145 120H164.5M173 80L164.5 120M164.5 120L178 143L144 158M66.5 80L74 120M74 120L60.5 143L95.5 158M144 158L128.5 171M144 158L144.5 202M144 158L168.5 197L144.5 202M128.5 171H109.5M128.5 171L119 179.5L109.5 171M128.5 171L144.5 202M109.5 171L95.5 158M109.5 171L93.5 202M95.5 158L93.5 202M95.5 158L69.5 197L93.5 202M144.5 202L119 218M144.5 202L146 224L119 218M119 218L93.5 202M119 218L92.5 224L93.5 202" stroke="black" stroke-width="0.5" stroke-linecap="round" stroke-dasharray="2 2"/>
<circle cx="144.693" cy="201.952" r="1.72169" fill="black"/>
<circle cx="118.868" cy="218.021" r="1.72169" fill="black"/>
<circle cx="93.6162" cy="201.952" r="1.72169" fill="black"/>
<circle cx="69.7217" cy="196.722" r="1.72169" fill="black"/>
<circle cx="60.7217" cy="142.722" r="1.72169" fill="black"/>
<circle cx="177.722" cy="142.722" r="1.72169" fill="black"/>
<circle cx="168.722" cy="196.722" r="1.72169" fill="black"/>
<circle cx="145.722" cy="223.722" r="1.72169" fill="black"/>
<circle cx="92.7217" cy="223.722" r="1.72169" fill="black"/>
<circle cx="118.868" cy="179.57" r="1.72169" fill="black"/>
<circle cx="128.624" cy="170.961" r="1.72169" fill="black"/>
<circle cx="143.722" cy="157.722" r="1.72169" fill="black"/>
<circle cx="95.3379" cy="157.762" r="1.72169" fill="black"/>
<circle cx="109.685" cy="170.961" r="1.72169" fill="black"/>
<circle cx="118.868" cy="143.414" r="1.72169" fill="black"/>
<circle cx="104.52" cy="106.685" r="1.72169" fill="black"/>
<circle cx="93.6162" cy="119.885" r="1.72169" fill="black"/>
<circle cx="144.693" cy="119.885" r="1.72169" fill="black"/>
<circle cx="164.205" cy="119.885" r="1.72169" fill="black"/>
<circle cx="172.722" cy="79.7217" r="1.72169" fill="black"/>
<circle cx="66.7217" cy="79.7217" r="1.72169" fill="black"/>
<circle cx="133.789" cy="106.685" r="1.72169" fill="black"/>
<circle cx="74.1035" cy="119.885" r="1.72169" fill="black"/>
<circle cx="93.6162" cy="64.7905" r="1.72169" fill="black"/>
<circle cx="144.693" cy="64.7905" r="1.72169" fill="black"/>
<path d="M200 1H217C223.523 1 226.785 1 229.358 2.06569C232.788 3.4866 235.513 6.21204 236.934 9.64243C238 12.2152 238 15.4768 238 22V35" stroke="#E5E7EB" stroke-width="2" stroke-linecap="round"/>
<path d="M38 1H22C15.4768 1 12.2152 1 9.64243 2.06569C6.21204 3.4866 3.4866 6.21204 2.06569 9.64243C1 12.2152 1 15.4768 1 22V36" stroke="#E5E7EB" stroke-width="2" stroke-linecap="round"/>
<path d="M200 282H217C223.523 282 226.785 282 229.358 280.934C232.788 279.513 235.513 276.788 236.934 273.358C238 270.785 238 267.523 238 261V247" stroke="#E5E7EB" stroke-width="2" stroke-linecap="round"/>
<path d="M38 282H22C15.4768 282 12.2152 282 9.64243 280.934C6.21204 279.513 3.4866 276.788 2.06569 273.358C1 270.785 1 267.523 1 261V247" stroke="#E5E7EB" stroke-width="2" stroke-linecap="round"/>
<line x1="1.75" y1="161.25" x2="237.25" y2="161.25" stroke="#1DAB87" stroke-width="1.5" stroke-linecap="round"/>
<rect x="1" y="162" width="237" height="120" fill="url(#paint0_linear_517_3634)"/>
<defs>
<linearGradient id="paint0_linear_517_3634" x1="120" y1="84.2819" x2="120" y2="282" gradientUnits="userSpaceOnUse">
<stop stop-color="#1DAB87"/>
<stop offset="1" stop-color="#DDF4EE" stop-opacity="0"/>
</linearGradient>
</defs>
</svg>
