<svg width="48" height="48" viewBox="0 0 48 48" fill="none" xmlns="http://www.w3.org/2000/svg">
<rect width="48" height="48" rx="12" fill="#F9FAFB"/>
<path d="M21 27L27 21" stroke="#5FA8EE" stroke-width="1.5" stroke-linecap="round" stroke-linejoin="round"/>
<path d="M21.5 22C21.7761 22 22 21.7761 22 21.5C22 21.2239 21.7761 21 21.5 21C21.2239 21 21 21.2239 21 21.5C21 21.7761 21.2239 22 21.5 22Z" fill="#5FA8EE" stroke="#5FA8EE" stroke-width="2" stroke-linecap="round" stroke-linejoin="round"/>
<path d="M26.5 27C26.7761 27 27 26.7761 27 26.5C27 26.2239 26.7761 26 26.5 26C26.2239 26 26 26.2239 26 26.5C26 26.7761 26.2239 27 26.5 27Z" fill="#5FA8EE" stroke="#5FA8EE" stroke-width="2.5" stroke-linecap="round" stroke-linejoin="round"/>
<path d="M24 33C28.9706 33 33 28.9706 33 24C33 19.0294 28.9706 15 24 15C19.0294 15 15 19.0294 15 24C15 28.9706 19.0294 33 24 33Z" stroke="#5FA8EE" stroke-width="1.5" stroke-linecap="round" stroke-linejoin="round"/>
</svg>
