<svg width="88" height="88" viewBox="0 0 88 88" fill="none" xmlns="http://www.w3.org/2000/svg">
<circle cx="44" cy="44" r="44" fill="white"/>
<circle cx="44" cy="44" r="36" fill="#F3F4F6"/>
<path d="M54.3517 27.5343L22.2942 35.0002C21.0272 35.2953 20.2392 36.5617 20.5343 37.8287L24.9265 56.6881C25.2216 57.9552 26.488 58.7432 27.7551 58.4481L59.8125 50.9822C61.0795 50.6871 61.8675 49.4207 61.5724 48.1536L57.1802 29.2942C56.8851 28.0271 55.6187 27.2392 54.3517 27.5343Z" fill="#1D3A70"/>
<path d="M27.2213 58.7372C26.6385 58.7362 26.0732 58.5386 25.6168 58.1764C25.1604 57.8141 24.8395 57.3084 24.7063 56.7411L20.3136 37.88C20.1586 37.2137 20.2739 36.5131 20.6344 35.9316C20.9949 35.3502 21.5711 34.9353 22.2368 34.7779L54.3009 27.3104C54.9682 27.1555 55.6697 27.2718 56.2513 27.6336C56.8329 27.9955 57.2472 28.5734 57.4031 29.2404L61.7958 48.1015C61.8731 48.4316 61.8845 48.7738 61.8294 49.1083C61.7744 49.4429 61.6539 49.7633 61.4748 50.0512C61.2957 50.3392 61.0616 50.589 60.7859 50.7863C60.5102 50.9837 60.1983 51.1247 59.868 51.2014L27.8085 58.6712C27.6159 58.7155 27.4189 58.7376 27.2213 58.7372ZM54.8881 27.6973C54.7256 27.6972 54.5637 27.7163 54.4056 27.7542L22.3461 35.2217C22.0736 35.2844 21.8162 35.4003 21.5886 35.5627C21.361 35.7251 21.1677 35.9308 21.0197 36.168C20.8717 36.4052 20.772 36.6693 20.7262 36.9451C20.6804 37.2209 20.6895 37.503 20.7529 37.7753L25.1501 56.641C25.278 57.1896 25.618 57.6653 26.0957 57.9639C26.5735 58.2624 27.15 58.3596 27.6992 58.2342L59.7565 50.7667C60.0288 50.7036 60.286 50.5876 60.5134 50.4251C60.7409 50.2627 60.9341 50.057 61.082 49.8199C61.23 49.5827 61.3298 49.3188 61.3757 49.0431C61.4216 48.7673 61.4128 48.4853 61.3497 48.213L56.9593 29.3428C56.85 28.8753 56.586 28.4583 56.2101 28.1596C55.8341 27.8609 55.3683 27.698 54.8881 27.6973Z" fill="white"/>
<path d="M58.0077 32.8479L21.3618 41.3824L22.4475 46.0441L59.0934 37.5096L58.0077 32.8479Z" fill="white"/>
<path d="M22.4484 46.2711C22.3958 46.2724 22.3444 46.2554 22.3029 46.223C22.2614 46.1907 22.2324 46.1449 22.2208 46.0936L21.1352 41.4324C21.1215 41.3741 21.1313 41.3127 21.1625 41.2617C21.1781 41.2361 21.1986 41.214 21.2229 41.1964C21.2471 41.1788 21.2745 41.1662 21.3036 41.1592L57.947 32.622C57.9761 32.6153 58.0063 32.6143 58.0358 32.6193C58.0653 32.6242 58.0936 32.6349 58.1189 32.6507C58.1443 32.6666 58.1663 32.6873 58.1836 32.7117C58.201 32.736 58.2134 32.7636 58.2201 32.7927L59.308 37.4539C59.3148 37.4833 59.3157 37.5137 59.3106 37.5434C59.3055 37.5731 59.2946 37.6015 59.2784 37.6269C59.2464 37.6776 59.1957 37.7135 59.1373 37.727L22.494 46.2643C22.4791 46.2682 22.4638 46.2705 22.4484 46.2711ZM21.6359 41.5507L22.6191 45.7681L58.821 37.347L57.8377 33.1296L21.6359 41.5507Z" fill="white"/>
<g filter="url(#filter0_d_8_1331)">
<path d="M65.3439 37.609H32.4286C31.1277 37.609 30.073 38.6637 30.073 39.9647V59.3287C30.073 60.6297 31.1277 61.6844 32.4286 61.6844H65.3439C66.6449 61.6844 67.6996 60.6297 67.6996 59.3287V39.9647C67.6996 38.6637 66.6449 37.609 65.3439 37.609Z" fill="#1DAB87"/>
</g>
<path d="M65.344 61.9138H32.4264C31.7419 61.9126 31.0858 61.64 30.6019 61.1558C30.1181 60.6715 29.8461 60.0151 29.8455 59.3306V39.9642C29.8461 39.2797 30.1181 38.6233 30.6019 38.1391C31.0858 37.6548 31.7419 37.3822 32.4264 37.381H65.344C66.0289 37.3816 66.6857 37.6539 67.17 38.1383C67.6543 38.6226 67.9267 39.2793 67.9273 39.9642V59.3306C67.9267 60.0155 67.6543 60.6722 67.17 61.1566C66.6857 61.6409 66.0289 61.9132 65.344 61.9138ZM32.4264 37.8362C31.8626 37.8374 31.3223 38.062 30.9238 38.4609C30.5253 38.8598 30.3013 39.4004 30.3007 39.9642V59.3306C30.3007 59.8946 30.5245 60.4355 30.9231 60.8345C31.3217 61.2336 31.8624 61.458 32.4264 61.4586H65.344C65.9084 61.4586 66.4497 61.2344 66.8488 60.8353C67.2479 60.4363 67.4721 59.895 67.4721 59.3306V39.9642C67.4715 39.4 67.2471 38.8591 66.8481 38.4601C66.4491 38.0612 65.9082 37.8368 65.344 37.8362H32.4264Z" fill="#1DAB87"/>
<path d="M56.2173 48.174C57.6792 48.174 58.8643 46.9889 58.8643 45.527C58.8643 44.0651 57.6792 42.88 56.2173 42.88C54.7554 42.88 53.5703 44.0651 53.5703 45.527C53.5703 46.9889 54.7554 48.174 56.2173 48.174Z" fill="#FACC15"/>
<path d="M56.2172 48.4011C55.6485 48.4016 55.0926 48.2334 54.6195 47.9178C54.1465 47.6022 53.7777 47.1534 53.5598 46.6282C53.3419 46.103 53.2846 45.5249 53.3953 44.9671C53.5059 44.4094 53.7795 43.897 54.1815 43.4947C54.5834 43.0925 55.0956 42.8185 55.6533 42.7074C56.2109 42.5963 56.789 42.6531 57.3144 42.8706C57.8398 43.0881 58.2889 43.4565 58.6049 43.9293C58.9208 44.4021 59.0895 44.9579 59.0895 45.5265C59.0883 46.2882 58.7853 47.0183 58.247 47.557C57.7087 48.0958 56.9788 48.3993 56.2172 48.4011ZM56.2172 43.1095C55.7385 43.109 55.2704 43.2506 54.8722 43.5162C54.474 43.7819 54.1635 44.1597 53.9801 44.6019C53.7967 45.0441 53.7486 45.5307 53.8419 46.0003C53.9352 46.4698 54.1657 46.9011 54.5041 47.2396C54.8426 47.5781 55.2739 47.8085 55.7435 47.9018C56.213 47.9951 56.6996 47.947 57.1418 47.7636C57.584 47.5802 57.9618 47.2697 58.2275 46.8715C58.4932 46.4733 58.6347 46.0052 58.6343 45.5265C58.6331 44.8859 58.378 44.2718 57.925 43.8187C57.472 43.3657 56.8579 43.1107 56.2172 43.1095Z" fill="#FACC15"/>
<path d="M60.3503 48.174C61.8122 48.174 62.9973 46.9889 62.9973 45.527C62.9973 44.0651 61.8122 42.88 60.3503 42.88C58.8885 42.88 57.7034 44.0651 57.7034 45.527C57.7034 46.9889 58.8885 48.174 60.3503 48.174Z" fill="#FB923C"/>
<path d="M60.3505 48.4011C59.7818 48.4016 59.2259 48.2334 58.7528 47.9178C58.2798 47.6022 57.911 47.1534 57.6931 46.6282C57.4752 46.103 57.4179 45.5249 57.5286 44.9671C57.6392 44.4094 57.9128 43.897 58.3148 43.4947C58.7167 43.0925 59.2289 42.8185 59.7866 42.7074C60.3442 42.5963 60.9223 42.6531 61.4477 42.8706C61.9731 43.0881 62.4222 43.4565 62.7382 43.9293C63.0541 44.4021 63.2228 44.9579 63.2228 45.5265C63.2216 46.2882 62.9186 47.0183 62.3803 47.557C61.842 48.0958 61.1121 48.3993 60.3505 48.4011ZM60.3505 43.1095C59.8718 43.109 59.4037 43.2506 59.0055 43.5162C58.6073 43.7819 58.2968 44.1597 58.1134 44.6019C57.93 45.0441 57.8819 45.5307 57.9752 46.0003C58.0685 46.4698 58.299 46.9011 58.6375 47.2396C58.9759 47.5781 59.4072 47.8085 59.8768 47.9018C60.3463 47.9951 60.8329 47.947 61.2751 47.7636C61.7173 47.5802 62.0951 47.2697 62.3608 46.8715C62.6265 46.4733 62.768 46.0052 62.7676 45.5265C62.7664 44.8859 62.5113 44.2718 62.0583 43.8187C61.6053 43.3657 60.9912 43.1107 60.3505 43.1095Z" fill="#FB923C"/>
<path d="M38.0275 48.3878H35.4989C35.0753 48.3879 34.6688 48.2204 34.3683 47.9219C34.0677 47.6234 33.8973 47.2182 33.8943 46.7947V44.2569C33.8943 44.0467 33.9359 43.8386 34.0166 43.6446C34.0974 43.4506 34.2158 43.2744 34.3649 43.1263C34.5141 42.9782 34.6911 42.8611 34.8857 42.7817C35.0803 42.7023 35.2887 42.6622 35.4989 42.6637H38.0275C38.45 42.6637 38.8553 42.8316 39.154 43.1304C39.4528 43.4292 39.6207 43.8344 39.6207 44.2569V46.7855C39.6201 47.2087 39.4523 47.6146 39.1539 47.9147C38.8555 48.2148 38.4507 48.3848 38.0275 48.3878ZM35.4989 43.1098C35.3485 43.1083 35.1993 43.1367 35.0599 43.1932C34.9205 43.2497 34.7937 43.3333 34.6868 43.4391C34.5799 43.5449 34.4951 43.6709 34.4372 43.8097C34.3793 43.9485 34.3495 44.0974 34.3495 44.2478V46.7855C34.3495 46.936 34.3793 47.0849 34.4372 47.2237C34.4951 47.3625 34.5799 47.4885 34.6868 47.5943C34.7937 47.7001 34.9205 47.7837 35.0599 47.8402C35.1993 47.8967 35.3485 47.925 35.4989 47.9235H38.0275C38.3293 47.9235 38.6187 47.8036 38.8322 47.5902C39.0456 47.3768 39.1655 47.0874 39.1655 46.7855V44.2569C39.1655 43.9551 39.0456 43.6657 38.8322 43.4522C38.6187 43.2388 38.3293 43.1189 38.0275 43.1189L35.4989 43.1098Z" fill="#FFB9AA"/>
<path d="M40.374 56.6403H34.1219C34.0615 56.6403 34.0036 56.6164 33.9609 56.5737C33.9183 56.531 33.8943 56.4731 33.8943 56.4127V53.7476C33.8943 53.6872 33.9183 53.6293 33.9609 53.5866C34.0036 53.5439 34.0615 53.52 34.1219 53.52H40.374C40.4344 53.52 40.4923 53.5439 40.535 53.5866C40.5776 53.6293 40.6016 53.6872 40.6016 53.7476V56.4127C40.6016 56.4731 40.5776 56.531 40.535 56.5737C40.4923 56.6164 40.4344 56.6403 40.374 56.6403ZM34.3495 56.1851H40.1464V53.9752H34.3495V56.1851Z" fill="#FFB9AA"/>
<path d="M48.1331 56.6403H41.8809C41.8206 56.6403 41.7627 56.6164 41.72 56.5737C41.6773 56.531 41.6533 56.4731 41.6533 56.4127V53.7476C41.6533 53.6872 41.6773 53.6293 41.72 53.5866C41.7627 53.5439 41.8206 53.52 41.8809 53.52H48.1331C48.1934 53.52 48.2513 53.5439 48.294 53.5866C48.3367 53.6293 48.3607 53.6872 48.3607 53.7476V56.4127C48.3607 56.4731 48.3367 56.531 48.294 56.5737C48.2513 56.6164 48.1934 56.6403 48.1331 56.6403ZM42.1085 56.1851H47.9055V53.9752H42.1085V56.1851Z" fill="#FFB9AA"/>
<path d="M55.8896 56.6403H49.6397C49.5793 56.6403 49.5215 56.6164 49.4788 56.5737C49.4361 56.531 49.4121 56.4731 49.4121 56.4127V53.7476C49.4121 53.6872 49.4361 53.6293 49.4788 53.5866C49.5215 53.5439 49.5793 53.52 49.6397 53.52H55.8896C55.9499 53.52 56.0078 53.5439 56.0505 53.5866C56.0932 53.6293 56.1172 53.6872 56.1172 53.7476V56.4127C56.1172 56.4731 56.0932 56.531 56.0505 56.5737C56.0078 56.6164 55.9499 56.6403 55.8896 56.6403ZM49.8673 56.1851H55.662V53.9752H49.8673V56.1851Z" fill="#FFB9AA"/>
<path d="M63.6597 56.6403H57.3985C57.3381 56.6403 57.2802 56.6164 57.2376 56.5737C57.1949 56.531 57.1709 56.4731 57.1709 56.4127V53.7476C57.1709 53.6872 57.1949 53.6293 57.2376 53.5866C57.2802 53.5439 57.3381 53.52 57.3985 53.52H63.6597C63.7201 53.52 63.778 53.5439 63.8207 53.5866C63.8634 53.6293 63.8873 53.6872 63.8873 53.7476V56.4127C63.8873 56.4731 63.8634 56.531 63.8207 56.5737C63.778 56.6164 63.7201 56.6403 63.6597 56.6403ZM57.6375 56.1851H63.4321V53.9752H57.6261L57.6375 56.1851Z" fill="#FFB9AA"/>
<defs>
<filter id="filter0_d_8_1331" x="6.073" y="29.609" width="69.6267" height="56.0754" filterUnits="userSpaceOnUse" color-interpolation-filters="sRGB">
<feFlood flood-opacity="0" result="BackgroundImageFix"/>
<feColorMatrix in="SourceAlpha" type="matrix" values="0 0 0 0 0 0 0 0 0 0 0 0 0 0 0 0 0 0 127 0" result="hardAlpha"/>
<feOffset dx="-8" dy="8"/>
<feGaussianBlur stdDeviation="8"/>
<feComposite in2="hardAlpha" operator="out"/>
<feColorMatrix type="matrix" values="0 0 0 0 0.419608 0 0 0 0 0.447059 0 0 0 0 0.501961 0 0 0 0.15 0"/>
<feBlend mode="normal" in2="BackgroundImageFix" result="effect1_dropShadow_8_1331"/>
<feBlend mode="normal" in="SourceGraphic" in2="effect1_dropShadow_8_1331" result="shape"/>
</filter>
</defs>
</svg>
