<svg width="113" height="15" viewBox="0 0 113 15" fill="none" xmlns="http://www.w3.org/2000/svg">
<g clip-path="url(#clip0_410_4948)">
<path d="M12.3959 0C12.5845 0 12.7496 0.0707547 12.8911 0.212264C13.0326 0.353774 13.1034 0.518868 13.1034 0.707547V14.252C13.1034 14.4407 13.0326 14.6058 12.8911 14.7473C12.7496 14.8888 12.5845 14.9596 12.3959 14.9596H10.6169C10.3743 14.9596 10.1789 14.8652 10.0306 14.6765L0.145185 1.13208C0.0643224 1.02426 0.0171526 0.902965 0.00367556 0.768194C-0.00980152 0.633423 0.0137834 0.505391 0.0744303 0.384097C0.135077 0.262803 0.222678 0.168463 0.337233 0.101078C0.451789 0.0336926 0.576452 0 0.711222 0H2.4902C2.59801 0 2.70583 0.0235851 2.81365 0.0707549C2.92146 0.117925 3.00233 0.188679 3.05623 0.283019L10.1519 9.92587V0.707547C10.1519 0.518868 10.2193 0.353774 10.3541 0.212264C10.4888 0.0707547 10.6573 0 10.8595 0H12.3959ZM2.24761 9.80458C2.43629 9.80458 2.60138 9.87197 2.74289 10.0067C2.8844 10.1415 2.95516 10.31 2.95516 10.5121V14.252C2.95516 14.4407 2.8844 14.6058 2.74289 14.7473C2.60138 14.8888 2.43629 14.9596 2.24761 14.9596H0.711222C0.522543 14.9596 0.357449 14.8888 0.21594 14.7473C0.0744303 14.6058 0.00367556 14.4407 0.00367556 14.252V10.5121C0.00367556 10.31 0.0744303 10.1415 0.21594 10.0067C0.357449 9.87197 0.522543 9.80458 0.711222 9.80458H2.24761ZM27.0724 12.0889C27.2746 12.0889 27.443 12.1597 27.5778 12.3012C27.7126 12.4427 27.7799 12.6146 27.7799 12.8167V14.2924C27.7799 14.4811 27.7126 14.6462 27.5778 14.7877C27.443 14.9292 27.2746 15 27.0724 15H17.0859C16.8972 15 16.7321 14.9292 16.5906 14.7877C16.4491 14.6462 16.3783 14.4811 16.3783 14.2924V12.8167C16.3783 12.6146 16.4491 12.4427 16.5906 12.3012C16.7321 12.1597 16.8972 12.0889 17.0859 12.0889H27.0724ZM17.0859 8.95552C16.8972 8.95552 16.7321 8.88477 16.5906 8.74326C16.4491 8.60175 16.3783 8.43666 16.3783 8.24798V6.7318C16.3783 6.54313 16.4491 6.37803 16.5906 6.23652C16.7321 6.09501 16.8972 6.02426 17.0859 6.02426H26.1627C26.3649 6.02426 26.5367 6.09501 26.6782 6.23652C26.8197 6.37803 26.8905 6.54313 26.8905 6.7318V8.24798C26.8905 8.43666 26.8197 8.60175 26.6782 8.74326C26.5367 8.88477 26.3649 8.95552 26.1627 8.95552H17.0859ZM27.0724 0C27.2746 0 27.443 0.0707547 27.5778 0.212264C27.7126 0.353774 27.7799 0.518868 27.7799 0.707547V2.18329C27.7799 2.38544 27.7126 2.55728 27.5778 2.69879C27.443 2.8403 27.2746 2.91105 27.0724 2.91105H17.0859C16.8972 2.91105 16.7321 2.8403 16.5906 2.69879C16.4491 2.55728 16.3783 2.38544 16.3783 2.18329V0.707547C16.3783 0.518868 16.4491 0.353774 16.5906 0.212264C16.7321 0.0707547 16.8972 0 17.0859 0H27.0724Z" fill="white"/>
<path fill-rule="evenodd" clip-rule="evenodd" d="M31.2854 9.3418C30.5761 9.3418 30 9.92001 30 10.632C30 11.344 30.5761 11.9283 31.2854 11.9283C31.424 11.9283 31.5605 11.9051 31.6916 11.8614C33.785 15.0829 37.9387 15.8263 40.9802 14.0827C41.0691 14.0317 41.1038 13.9042 41.053 13.815C41.0022 13.7257 40.8751 13.6909 40.7862 13.7419C37.9272 15.3809 34.024 14.7015 32.0372 11.6788C32.3601 11.4434 32.5708 11.0618 32.5708 10.632C32.5708 9.92001 31.9947 9.3418 31.2854 9.3418Z" fill="#1DAB87"/>
<path fill-rule="evenodd" clip-rule="evenodd" d="M40.9802 2.08143C40.8181 2.10211 40.7693 2.36953 40.9136 2.44658C43.2027 3.84754 44.4809 6.58894 43.9208 9.3602C43.8538 9.34878 43.7841 9.34197 43.7147 9.34197C43.0054 9.34197 42.4293 9.92019 42.4293 10.6322C42.4293 11.3442 43.0054 11.9285 43.7147 11.9285C44.424 11.9285 45 11.3442 45 10.6322C45 10.1291 44.7125 9.69297 44.2907 9.48195C44.9056 6.5346 43.5524 3.60435 41.1137 2.11187C41.0813 2.09121 41.0427 2.08046 41.0045 2.08144C40.9963 2.08093 40.9884 2.08092 40.9802 2.08143Z" fill="#1DAB87"/>
<path fill-rule="evenodd" clip-rule="evenodd" d="M37.5 0C36.8161 0 36.26 0.540316 36.2207 1.21718C33.2894 1.76155 31.1535 4.0898 30.6669 6.85276C30.6614 6.87843 30.661 6.90496 30.6659 6.93076C30.6708 6.95656 30.6809 6.98111 30.6954 7.00291C30.71 7.02471 30.7289 7.04332 30.7508 7.05763C30.7728 7.07194 30.7974 7.08165 30.8231 7.08617C30.8489 7.09069 30.8753 7.08992 30.9008 7.08392C30.9263 7.07793 30.9503 7.06683 30.9714 7.05128C30.9925 7.03573 31.0102 7.01605 31.0235 6.99344C31.0369 6.97083 31.0455 6.94575 31.0489 6.91971C31.5059 4.32456 33.5014 2.13491 36.251 1.60669C36.3919 2.1667 36.8992 2.58044 37.5 2.58044C38.2093 2.58044 38.7854 2.00222 38.7854 1.29022C38.7854 0.578216 38.2093 0 37.5 0Z" fill="#1DAB87"/>
<path d="M60.8634 0C61.0506 0 61.2144 0.0701872 61.3548 0.210561C61.4951 0.350936 61.5653 0.514706 61.5653 0.701871V14.1377C61.5653 14.3249 61.4951 14.4886 61.3548 14.629C61.2144 14.7694 61.0506 14.8396 60.8634 14.8396H59.3394C59.1389 14.8396 58.9717 14.7694 58.838 14.629C58.7044 14.4886 58.6375 14.3249 58.6375 14.1377V5.07353L54.9276 9.84625C54.7806 10.0201 54.5934 10.1069 54.3661 10.1069C54.2592 10.1069 54.1522 10.0836 54.0453 10.0368C53.9383 9.98997 53.8581 9.91978 53.8046 9.8262L47.2271 1.12299C47.1469 1.02941 47.1001 0.912433 47.0867 0.772059C47.0733 0.631684 47.1001 0.504679 47.1669 0.391043C47.2338 0.277406 47.3207 0.183824 47.4276 0.110294C47.5346 0.0367648 47.6549 0 47.7886 0H49.5533C49.7806 0 49.9677 0.0935831 50.1148 0.280749L54.3661 5.89572L58.5172 0.280749C58.6643 0.0935831 58.8581 0 59.0987 0H60.8634ZM49.3127 9.72593C49.4998 9.72593 49.6636 9.79278 49.804 9.92647C49.9443 10.0602 50.0145 10.2273 50.0145 10.4278V14.1377C50.0145 14.3249 49.9443 14.4886 49.804 14.629C49.6636 14.7694 49.4998 14.8396 49.3127 14.8396H47.7886C47.6014 14.8396 47.4377 14.7694 47.2973 14.629C47.1569 14.4886 47.0867 14.3249 47.0867 14.1377V10.4278C47.0867 10.2273 47.1569 10.0602 47.2973 9.92647C47.4377 9.79278 47.6014 9.72593 47.7886 9.72593H49.3127ZM67.0399 5.95588C67.2405 5.95588 67.4076 6.02607 67.5413 6.16644C67.6749 6.30682 67.7418 6.47727 67.7418 6.67781V14.1778C67.7418 14.365 67.6749 14.5287 67.5413 14.6691C67.4076 14.8095 67.2405 14.8797 67.0399 14.8797H65.5159C65.3287 14.8797 65.1649 14.8095 65.0245 14.6691C64.8842 14.5287 64.814 14.365 64.814 14.1778V6.67781C64.814 6.47727 64.8842 6.30682 65.0245 6.16644C65.1649 6.02607 65.3287 5.95588 65.5159 5.95588H67.0399ZM67.0399 0C67.2405 0 67.4076 0.0701872 67.5413 0.210561C67.6749 0.350936 67.7418 0.514706 67.7418 0.701871V4.41176C67.7418 4.6123 67.6749 4.78275 67.5413 4.92313C67.4076 5.0635 67.2405 5.13369 67.0399 5.13369H65.5159C65.3287 5.13369 65.1649 5.0635 65.0245 4.92313C64.8842 4.78275 64.814 4.6123 64.814 4.41176V0.701871C64.814 0.514706 64.8842 0.350936 65.0245 0.210561C65.1649 0.0701872 65.3287 0 65.5159 0H67.0399ZM83.2832 0C83.4704 0 83.6342 0.0701872 83.7745 0.210561C83.9149 0.350936 83.9851 0.514706 83.9851 0.701871V14.1377C83.9851 14.3249 83.9149 14.4886 83.7745 14.629C83.6342 14.7694 83.4704 14.8396 83.2832 14.8396H81.5185C81.2779 14.8396 81.084 14.746 80.937 14.5588L71.1308 1.12299C71.0506 1.01604 71.0038 0.895722 70.9904 0.762032C70.9771 0.628342 71.0005 0.501337 71.0606 0.381016C71.1208 0.260695 71.2077 0.167112 71.3213 0.100267C71.435 0.0334224 71.5586 0 71.6923 0H73.457C73.564 0 73.6709 0.0233959 73.7779 0.0701873C73.8848 0.116979 73.965 0.187166 74.0185 0.280749L81.0573 9.84625V0.701871C81.0573 0.514706 81.1241 0.350936 81.2578 0.210561C81.3915 0.0701872 81.5586 0 81.7592 0H83.2832ZM73.2164 9.72593C73.4036 9.72593 73.5673 9.79278 73.7077 9.92647C73.8481 10.0602 73.9183 10.2273 73.9183 10.4278V14.1377C73.9183 14.3249 73.8481 14.4886 73.7077 14.629C73.5673 14.7694 73.4036 14.8396 73.2164 14.8396H71.6923C71.5052 14.8396 71.3414 14.7694 71.201 14.629C71.0606 14.4886 70.9904 14.3249 70.9904 14.1377V10.4278C70.9904 10.2273 71.0606 10.0602 71.201 9.92647C71.3414 9.79278 71.5052 9.72593 71.6923 9.72593H73.2164ZM88.6576 0C88.8581 0 89.0285 0.0701872 89.1689 0.210561C89.3093 0.350936 89.3795 0.52139 89.3795 0.721925V2.18583C89.3795 2.38636 89.3093 2.55682 89.1689 2.69719C89.0285 2.83757 88.8581 2.90775 88.6576 2.90775H86.592C86.4049 2.90775 86.2411 2.83757 86.1007 2.69719C85.9604 2.55682 85.8902 2.38636 85.8902 2.18583V0.721925C85.8902 0.52139 85.9604 0.350936 86.1007 0.210561C86.2411 0.0701872 86.4049 0 86.592 0H88.6576ZM97.6215 0C97.8086 0 97.9724 0.0701872 98.1128 0.210561C98.2531 0.350936 98.3233 0.52139 98.3233 0.721925V2.18583C98.3233 2.38636 98.2531 2.55682 98.1128 2.69719C97.9724 2.83757 97.8086 2.90775 97.6215 2.90775H93.5907V14.2981C93.5907 14.4853 93.5205 14.6491 93.3801 14.7894C93.2398 14.9298 93.076 15 92.8888 15H91.3447C91.1442 15 90.9737 14.9298 90.8334 14.7894C90.693 14.6491 90.6228 14.4853 90.6228 14.2981V0.721925C90.6228 0.52139 90.693 0.350936 90.8334 0.210561C90.9737 0.0701872 91.1442 0 91.3447 0H97.6215ZM112.862 0.381016C112.929 0.501337 112.959 0.628342 112.952 0.762032C112.946 0.895722 112.902 1.01604 112.822 1.12299L107.267 9.14438V14.2981C107.267 14.4853 107.197 14.6491 107.057 14.7894C106.916 14.9298 106.752 15 106.565 15H105.021C104.821 15 104.65 14.9298 104.51 14.7894C104.369 14.6491 104.299 14.4853 104.299 14.2981V8.42246C104.299 8.28877 104.346 8.15508 104.44 8.02139L109.794 0.300802C109.861 0.207219 109.944 0.13369 110.045 0.0802138C110.145 0.0267379 110.255 0 110.375 0H112.24C112.374 0 112.498 0.0334224 112.611 0.100267C112.725 0.167112 112.809 0.260695 112.862 0.381016ZM104.42 4.79278C104.366 4.9131 104.283 5.00668 104.169 5.07353C104.055 5.14037 103.932 5.1738 103.798 5.1738H101.933C101.692 5.1738 101.492 5.07353 101.331 4.87299L98.7244 1.12299C98.6576 1.01604 98.6208 0.895722 98.6141 0.762032C98.6074 0.628342 98.6308 0.501337 98.6843 0.381016C98.7378 0.260695 98.8213 0.167112 98.935 0.100267C99.0486 0.0334224 99.1723 0 99.306 0H101.191C101.418 0 101.612 0.100268 101.773 0.300802L104.379 4.0508C104.446 4.15775 104.483 4.27807 104.49 4.41176C104.496 4.54545 104.473 4.67246 104.42 4.79278Z" fill="white"/>
</g>
<defs>
<clipPath id="clip0_410_4948">
<rect width="112.953" height="15" fill="white"/>
</clipPath>
</defs>
</svg>
