<svg width="48" height="48" viewBox="0 0 48 48" fill="none" xmlns="http://www.w3.org/2000/svg">
<rect width="48" height="48" rx="12" fill="#F9FAFB"/>
<path d="M21.7083 25.6041C21.7083 26.4933 22.3958 27.2083 23.2391 27.2083H24.9624C25.6957 27.2083 26.2916 26.585 26.2916 25.8058C26.2916 24.9716 25.9249 24.6691 25.3841 24.4766L22.6249 23.5141C22.0841 23.3216 21.7174 23.0283 21.7174 22.185C21.7174 21.415 22.3132 20.7825 23.0466 20.7825H24.7699C25.6132 20.7825 26.3008 21.4975 26.3008 22.3866" stroke="#1D3A70" stroke-width="1.5" stroke-linecap="round" stroke-linejoin="round"/>
<path d="M24 19.875V28.125" stroke="#1D3A70" stroke-width="1.5" stroke-linecap="round" stroke-linejoin="round"/>
<path d="M33.1666 24C33.1666 29.06 29.0599 33.1667 23.9999 33.1667C18.9399 33.1667 14.8333 29.06 14.8333 24C14.8333 18.94 18.9399 14.8334 23.9999 14.8334" stroke="#1D3A70" stroke-width="1.5" stroke-linecap="round" stroke-linejoin="round"/>
<path d="M33.1667 18.5V14.8334H29.5" stroke="#1D3A70" stroke-width="1.5" stroke-linecap="round" stroke-linejoin="round"/>
<path d="M28.5833 19.4167L33.1666 14.8334" stroke="#1D3A70" stroke-width="1.5" stroke-linecap="round" stroke-linejoin="round"/>
</svg>
