<svg width="121" height="96" viewBox="0 0 121 96" fill="none" xmlns="http://www.w3.org/2000/svg">
<path opacity="0.5" d="M21.3333 1H1V50.5M21.3333 1H60.9833M21.3333 1L41.6667 17.5M21.3333 1V32.35M21.3333 100H1V83.5M21.3333 100L40.65 84.325M21.3333 100V67M21.3333 100L1 83.5M21.3333 100H60.9833M40.65 84.325H81.3167M40.65 84.325L21.3333 67M81.3167 84.325L100.633 100M81.3167 84.325L60.9833 100M81.3167 84.325L82.3333 52.15M81.3167 84.325L60.9833 67.825M100.633 100H123V81.85M100.633 100L123 81.85M100.633 100V67M100.633 100H60.9833M123 81.85V53.8M100.633 67L82.3333 52.15M100.633 67L123 53.8M82.3333 52.15L101.65 36.475M82.3333 52.15V18.325M82.3333 52.15L60.9833 67.825M101.65 36.475L123 53.8M101.65 36.475V2.65M101.65 1H123V17.5M101.65 1V2.65M101.65 1H60.9833M101.65 1L123 17.5M123 53.8V17.5M82.3333 18.325L101.65 2.65M82.3333 18.325L60.9833 1M82.3333 18.325L62 34M82.3333 18.325L41.6667 17.5M62 34L41.6667 17.5M62 34L60.9833 67.825M41.6667 17.5L21.3333 32.35M41.6667 17.5L40.65 51.325M21.3333 32.35V34M1 50.5L21.3333 34M1 50.5L21.3333 67M1 50.5V83.5M21.3333 34V67M21.3333 67L40.65 51.325M21.3333 67L60.9833 67.825M40.65 51.325L60.9833 67.825" stroke="black"/>
</svg>
