<svg width="40" height="40" viewBox="0 0 40 40" fill="none" xmlns="http://www.w3.org/2000/svg">
<rect width="40" height="40" rx="12" fill="#F9FAFB"/>
<path d="M11.1941 21.8535C10.9353 20.6314 10.9353 19.3686 11.1941 18.1465C12.1928 18.2635 13.0656 17.9333 13.3499 17.2458C13.6351 16.5575 13.2527 15.7073 12.4627 15.0837C13.1439 14.0367 14.0367 13.1439 15.0837 12.4627C15.7064 13.2518 16.5575 13.6351 17.2458 13.3499C17.9342 13.0647 18.2644 12.1928 18.1465 11.1941C19.3686 10.9353 20.6314 10.9353 21.8535 11.1941C21.7365 12.1928 22.0667 13.0656 22.7542 13.3499C23.4425 13.6351 24.2927 13.2527 24.9163 12.4627C25.9633 13.1439 26.8561 14.0367 27.5373 15.0837C26.7482 15.7064 26.3649 16.5575 26.6501 17.2458C26.9353 17.9342 27.8072 18.2644 28.8059 18.1465C29.0647 19.3686 29.0647 20.6314 28.8059 21.8535C27.8072 21.7365 26.9344 22.0667 26.6501 22.7542C26.3649 23.4425 26.7473 24.2927 27.5373 24.9163C26.8561 25.9633 25.9633 26.8561 24.9163 27.5373C24.2936 26.7482 23.4425 26.3649 22.7542 26.6501C22.0658 26.9353 21.7356 27.8072 21.8535 28.8059C20.6314 29.0647 19.3686 29.0647 18.1465 28.8059C18.2635 27.8072 17.9333 26.9344 17.2458 26.6501C16.5575 26.3649 15.7073 26.7473 15.0837 27.5373C14.0367 26.8561 13.1439 25.9633 12.4627 24.9163C13.2518 24.2936 13.6351 23.4425 13.3499 22.7542C13.0647 22.0658 12.1928 21.7356 11.1941 21.8535ZM12.8019 20.1889C13.7917 20.4634 14.6078 21.0905 15.0126 22.0658C15.4166 23.0421 15.2826 24.0633 14.7769 24.9559C14.8633 25.0476 14.9524 25.1367 15.0441 25.2231C15.9376 24.7174 16.9579 24.5843 17.9342 24.9874C18.9095 25.3922 19.5366 26.2083 19.8111 27.1981C19.937 27.2017 20.063 27.2017 20.1889 27.1981C20.4634 26.2083 21.0905 25.3922 22.0658 24.9874C23.0421 24.5834 24.0633 24.7174 24.9559 25.2231C25.0476 25.1367 25.1367 25.0476 25.2231 24.9559C24.7174 24.0624 24.5843 23.0421 24.9874 22.0658C25.3922 21.0905 26.2083 20.4634 27.1981 20.1889C27.2017 20.063 27.2017 19.937 27.1981 19.8111C26.2083 19.5366 25.3922 18.9095 24.9874 17.9342C24.5834 16.9579 24.7174 15.9367 25.2231 15.0441C25.1364 14.9527 25.0473 14.8636 24.9559 14.7769C24.0624 15.2826 23.0421 15.4157 22.0658 15.0126C21.0905 14.6078 20.4634 13.7917 20.1889 12.8019C20.063 12.7986 19.937 12.7986 19.8111 12.8019C19.5366 13.7917 18.9095 14.6078 17.9342 15.0126C16.9579 15.4166 15.9367 15.2826 15.0441 14.7769C14.9524 14.8633 14.8633 14.9524 14.7769 15.0441C15.2826 15.9376 15.4157 16.9579 15.0126 17.9342C14.6078 18.9095 13.7917 19.5366 12.8019 19.8111C12.7983 19.937 12.7983 20.063 12.8019 20.1889ZM20 22.6993C19.2841 22.6993 18.5975 22.4149 18.0913 21.9087C17.5851 21.4025 17.3007 20.7159 17.3007 20C17.3007 19.2841 17.5851 18.5975 18.0913 18.0913C18.5975 17.5851 19.2841 17.3007 20 17.3007C20.7159 17.3007 21.4025 17.5851 21.9087 18.0913C22.4149 18.5975 22.6993 19.2841 22.6993 20C22.6993 20.7159 22.4149 21.4025 21.9087 21.9087C21.4025 22.4149 20.7159 22.6993 20 22.6993ZM20 20.8998C20.2386 20.8998 20.4675 20.805 20.6362 20.6362C20.805 20.4675 20.8998 20.2386 20.8998 20C20.8998 19.7614 20.805 19.5325 20.6362 19.3638C20.4675 19.195 20.2386 19.1002 20 19.1002C19.7614 19.1002 19.5325 19.195 19.3638 19.3638C19.195 19.5325 19.1002 19.7614 19.1002 20C19.1002 20.2386 19.195 20.4675 19.3638 20.6362C19.5325 20.805 19.7614 20.8998 20 20.8998Z" fill="#5FA8EE"/>
</svg>
