<svg width="48" height="48" viewBox="0 0 48 48" fill="none" xmlns="http://www.w3.org/2000/svg">
<rect width="48" height="48" rx="12" fill="#F9FAFB"/>
<path d="M21.2916 25.8958C21.2916 26.9467 22.1041 27.7917 23.1008 27.7917H25.1374C26.0041 27.7917 26.7083 27.055 26.7083 26.1342C26.7083 25.1483 26.275 24.7908 25.6358 24.5633L22.375 23.4258C21.7358 23.1983 21.3025 22.8517 21.3025 21.855C21.3025 20.945 22.0066 20.1975 22.8733 20.1975H24.91C25.9066 20.1975 26.7191 21.0425 26.7191 22.0933" stroke="black" stroke-width="1.5" stroke-linecap="round" stroke-linejoin="round"/>
<path d="M24 19.125V28.875" stroke="black" stroke-width="1.5" stroke-linecap="round" stroke-linejoin="round"/>
<path d="M34.8333 24C34.8333 29.98 29.98 34.8333 24 34.8333C18.02 34.8333 13.1666 29.98 13.1666 24C13.1666 18.02 18.02 13.1666 24 13.1666" stroke="black" stroke-width="1.5" stroke-linecap="round" stroke-linejoin="round"/>
<path d="M29.4166 14.25V18.5833H33.75" stroke="black" stroke-width="1.5" stroke-linecap="round" stroke-linejoin="round"/>
<path d="M34.8333 13.1666L29.4166 18.5833" stroke="black" stroke-width="1.5" stroke-linecap="round" stroke-linejoin="round"/>
</svg>
