<svg width="259" height="209" viewBox="0 0 259 209" fill="none" xmlns="http://www.w3.org/2000/svg">
<g clip-path="url(#clip0_751_3568)">
<path d="M147.547 184.897C145.757 182.387 143.332 180.551 140.284 179.864C137.626 179.264 134.894 179.366 132.192 179.387L98.0308 179.651C95.1051 179.673 92.3 182.21 92.4359 185.251C92.5708 188.265 94.8948 190.874 98.0308 190.85C108.038 190.773 118.044 190.696 128.051 190.619C130.41 190.6 132.771 190.558 135.13 190.566C135.66 190.567 136.188 190.595 136.717 190.601C136.845 190.603 136.938 190.602 137.003 190.599C137.02 190.604 137.033 190.608 137.055 190.614C137.331 190.69 137.614 190.742 137.892 190.814C137.794 190.817 138.072 190.991 138.211 191.049C138.23 191.087 138.271 191.154 138.339 191.258C138.434 191.436 138.716 191.978 138.728 191.961C139.151 193.032 139.5 194.13 139.772 195.248C140.422 197.715 140.565 198.23 140.659 200.544C140.777 203.467 143.147 206.283 146.254 206.144C149.184 206.013 151.975 203.679 151.848 200.544C151.635 195.262 150.708 189.328 147.547 184.897Z" fill="#E6E6E6"/>
<path d="M100.039 197.534C99.3975 193.642 98.7682 189.748 98.1141 185.858C97.4504 181.913 96.0949 178.3 93.027 175.71C92.2072 175.018 91.3573 174.372 90.5037 173.728C90.2036 173.502 89.9039 173.275 89.6073 173.044C89.5896 173.03 89.5783 173.021 89.5629 173.009C89.5303 172.981 89.4912 172.948 89.4386 172.903C88.1599 171.82 86.9244 170.689 85.7475 169.486C84.7024 168.418 83.7029 167.305 82.7491 166.146C82.5107 165.856 82.2755 165.564 82.0433 165.269C82.0033 165.219 81.7882 164.94 81.6464 164.759C81.5146 164.577 81.2737 164.249 81.2333 164.192C80.9619 163.808 80.6955 163.42 80.4338 163.029C78.6518 160.357 77.1088 157.533 75.8226 154.589C75.6951 154.297 75.5705 154.003 75.449 153.708C75.4164 153.618 75.3742 153.502 75.3182 153.348C75.059 152.635 74.8004 151.922 74.5634 151.2C74.0599 149.667 73.627 148.111 73.2647 146.533C73.0856 145.754 72.9244 144.97 72.781 144.183C72.7071 143.778 72.6379 143.372 72.5735 142.966C72.563 142.898 72.5001 142.46 72.4631 142.212C72.4358 141.963 72.3849 141.522 72.378 141.454C72.3371 141.044 72.3007 140.634 72.2689 140.223C72.1974 139.299 72.149 138.373 72.1238 137.446C72.0808 135.799 72.1103 134.151 72.2123 132.504C72.2703 131.578 72.353 130.655 72.4547 129.734C72.4609 129.677 72.4657 129.632 72.4701 129.592C72.4762 129.55 72.4834 129.504 72.4919 129.446C72.5672 128.936 72.6465 128.428 72.7351 127.921C73.0707 125.996 73.5071 124.09 74.0426 122.211C74.2962 121.323 74.5716 120.441 74.8689 119.567C75.0014 119.179 75.1381 118.793 75.279 118.407C75.2698 118.432 75.6923 117.352 75.698 117.316C77.3747 113.351 80.1171 109.736 80.1209 105.232C80.1235 102.183 77.5458 99.2614 74.526 99.4024C73.0204 99.4591 71.5957 100.099 70.5519 101.186C69.5082 102.274 68.9271 103.724 68.9311 105.232C68.9311 105.301 68.9308 105.359 68.9306 105.416C68.9024 105.511 68.8789 105.59 68.8577 105.66C68.5307 106.371 68.1302 107.047 67.7713 107.74C66.7885 109.638 65.9496 111.599 65.1527 113.588C63.8482 116.827 62.8497 120.182 62.1702 123.607C60.6933 131.113 60.5787 138.824 61.8318 146.37C64.0011 159.604 71.1549 172.272 81.1003 180.787C81.9634 181.526 82.8475 182.24 83.7399 182.94C84.1093 183.229 84.4816 183.513 84.8559 183.796C85.0328 183.929 85.7656 184.508 85.4433 184.227C86.1365 184.819 86.4283 185.117 86.6064 185.554C86.6322 185.654 86.6673 185.791 86.715 185.977C86.8405 186.469 86.9596 186.96 87.0587 187.459C87.9243 191.816 88.526 196.247 89.2491 200.633C89.7462 203.647 93.453 205.608 96.1316 204.705C99.2493 203.654 100.572 200.763 100.039 197.534Z" fill="#E6E6E6"/>
<path d="M148.114 208.836C145.764 208.843 143.508 207.916 141.84 206.259C140.172 204.602 139.229 202.351 139.218 199.999V193.612C132.536 194.36 109.655 194.187 103.096 193.132V199.744C103.078 202.094 102.133 204.341 100.467 205.997C98.8003 207.652 96.5477 208.581 94.1998 208.581C91.8519 208.581 89.5993 207.652 87.9329 205.997C86.2665 204.341 85.3215 202.094 85.3039 199.744V186.762C76.4205 181.823 69.0149 174.601 63.8514 165.841C58.688 157.081 55.9536 147.1 55.9307 136.929C55.9307 119.49 63.8275 103.221 77.5965 92.2949C86.5489 85.1668 97.426 80.8799 108.831 79.9849C110.379 79.8634 111.936 79.8019 113.46 79.8019C118.829 79.8019 143.05 80.6319 149.127 82.3818L162.984 68.62C163.188 68.4149 163.448 68.2752 163.731 68.2187C164.015 68.1622 164.308 68.1914 164.575 68.3026C164.844 68.4096 165.074 68.5955 165.235 68.8357C165.396 69.076 165.481 69.3594 165.479 69.6489V71.837L168.177 69.1624C168.38 68.9571 168.64 68.8172 168.923 68.7606C169.207 68.704 169.5 68.7332 169.767 68.8445C170.036 68.9515 170.266 69.1373 170.428 69.3777C170.589 69.6181 170.674 69.9017 170.672 70.1913V94.6426C177.625 100.917 182.924 108.81 186.101 117.624C189.277 126.438 190.232 135.9 188.881 145.172C187.53 154.444 183.914 163.239 178.355 170.778C172.795 178.316 165.464 184.366 157.009 188.391V199.999C156.998 202.351 156.055 204.602 154.387 206.259C152.719 207.916 150.463 208.843 148.114 208.836V208.836ZM139.917 192.818V199.999C139.935 202.164 140.806 204.233 142.341 205.757C143.876 207.281 145.951 208.136 148.114 208.136C150.276 208.136 152.351 207.281 153.886 205.757C155.421 204.233 156.292 202.164 156.31 199.999V187.949L156.51 187.854C165.996 183.349 174.049 176.3 179.774 167.491C187.07 156.25 190.105 142.767 188.328 129.481C186.551 116.195 180.081 103.984 170.088 95.0592L169.972 94.9548V70.1913C169.975 70.0408 169.931 69.8932 169.847 69.7683C169.763 69.6435 169.643 69.5473 169.503 69.4929C169.364 69.4332 169.21 69.4171 169.061 69.4467C168.912 69.4762 168.776 69.5501 168.67 69.6585L164.779 73.5154V69.6489C164.782 69.4984 164.738 69.3508 164.654 69.2259C164.57 69.1011 164.45 69.0049 164.31 68.9505C164.171 68.8909 164.016 68.875 163.867 68.9048C163.719 68.9345 163.582 69.0086 163.476 69.1172L149.322 83.1737L149.121 83.1107C143.472 81.3409 118.869 80.5019 113.46 80.5019C111.954 80.5019 110.415 80.5627 108.886 80.6829C97.6195 81.5669 86.8746 85.8017 78.031 92.8433C64.4303 103.636 56.63 119.705 56.63 136.929C56.6532 147.01 59.3729 156.901 64.5065 165.574C69.6402 174.247 77.0005 181.387 85.8228 186.25L86.0032 186.35V199.744C86.0212 201.908 86.8927 203.977 88.4279 205.501C89.9631 207.024 92.0377 207.879 94.1998 207.879C96.3619 207.879 98.4364 207.024 99.9716 205.501C101.507 203.977 102.378 201.908 102.396 199.744V192.294L102.811 192.372C108.705 193.482 133.524 193.657 139.522 192.87L139.917 192.818Z" fill="#3F3D56"/>
<path d="M100.707 41.6889L61.9834 53.3363C60.7517 53.7082 59.7179 54.5543 59.1092 55.6886C58.5004 56.8229 58.3664 58.1528 58.7366 59.3859C59.1069 60.619 59.951 61.6547 61.0837 62.2652C62.2164 62.8758 63.5449 63.0114 64.7774 62.6423L98.6649 52.4473L99.3748 52.2338C99.5185 48.5725 100.511 44.9948 102.274 41.7834C102.052 41.6838 101.816 41.6222 101.574 41.6014C101.282 41.5731 100.988 41.6028 100.707 41.6889Z" fill="#1DAB87"/>
<path d="M64.1081 65.1255C63.5941 65.1242 63.0934 64.9613 62.6769 64.6598C62.2604 64.3583 61.9491 63.9334 61.787 63.4451L59.3655 56.1319C59.2644 55.8265 59.2243 55.5042 59.2477 55.1833C59.271 54.8624 59.3573 54.5492 59.5016 54.2617C59.6459 53.9742 59.8453 53.718 60.0886 53.5076C60.3318 53.2972 60.6141 53.1369 60.9192 53.0357L92.4364 42.5818C92.7415 42.4805 93.0635 42.4405 93.3841 42.4638C93.7047 42.4871 94.0176 42.5734 94.3048 42.7178C94.5921 42.8622 94.8481 43.0617 95.0583 43.3051C95.2685 43.5485 95.4288 43.831 95.5299 44.1363L97.9514 51.4496C98.1528 52.0511 98.1124 52.7074 97.8388 53.2796C97.5651 53.8519 97.0796 54.295 96.4851 54.5151C96.456 54.5261 96.4266 54.5364 96.3969 54.5461L64.8805 64.9997C64.6314 65.0828 64.3706 65.1253 64.1081 65.1255Z" fill="#2F2E41"/>
<path d="M123.132 29.7011C116.771 29.7036 110.661 32.1832 106.094 36.6153C101.528 41.0473 98.8633 47.0839 98.6652 53.4473C98.6582 53.6958 98.6548 53.9478 98.6548 54.1998C98.6548 59.0452 100.09 63.7817 102.78 67.8105C105.47 71.8393 109.293 74.9794 113.765 76.8336C118.238 78.6878 123.16 79.173 127.908 78.2277C132.656 77.2824 137.018 74.9492 140.441 71.523C143.864 68.0968 146.195 63.7315 147.14 58.9792C148.084 54.227 147.6 49.3011 145.747 44.8246C143.894 40.348 140.757 36.5218 136.732 33.8299C132.706 31.1379 127.974 29.7011 123.132 29.7011V29.7011ZM123.132 77.9985C116.828 77.9919 110.784 75.4824 106.326 71.0207C101.868 66.5591 99.3607 60.5096 99.3541 54.1998C99.3541 53.8743 99.3611 53.5523 99.3751 53.2338C99.5645 48.572 101.119 44.0687 103.845 40.284C106.571 36.4992 110.348 33.5999 114.708 31.9467C119.067 30.2934 123.815 29.959 128.363 30.9852C132.91 32.0114 137.056 34.3528 140.285 37.7183C143.513 41.0838 145.682 45.3249 146.522 49.9143C147.361 54.5037 146.835 59.2388 145.007 63.5309C143.179 67.823 140.131 71.4828 136.242 74.055C132.353 76.6273 127.794 77.9986 123.132 77.9985V77.9985Z" fill="#3F3D56"/>
<path d="M143.763 53.1998C143.763 58.6762 141.59 63.9283 137.721 67.8007C133.851 71.6732 128.604 73.8487 123.132 73.8487C117.66 73.8487 112.413 71.6732 108.544 67.8007C104.675 63.9283 102.501 58.6762 102.501 53.1998C102.501 52.5453 102.532 51.9013 102.592 51.2644C103.089 45.9791 105.601 41.0884 109.606 37.608C113.611 34.1275 118.802 32.3247 124.1 32.5737C129.398 32.8228 134.397 35.1046 138.059 38.9455C141.72 42.7863 143.763 47.8911 143.763 53.1998V53.1998Z" fill="#E6E6E6"/>
<path d="M129.276 54.5717C128.776 53.9136 128.118 53.3924 127.363 53.0563C126.432 52.6636 125.471 52.3476 124.489 52.1113V46.4906C125.999 46.7185 127.415 47.3646 128.577 48.356L129.717 45.9237C129.061 45.339 128.308 44.8736 127.493 44.5482C126.588 44.1818 125.639 43.9382 124.671 43.8238V40.9749H122.031V43.8518C121.011 43.9664 120.028 44.2968 119.146 44.8212C118.349 45.2932 117.678 45.9512 117.191 46.7391C116.726 47.508 116.485 48.3917 116.495 49.2905C116.45 50.2644 116.732 51.2255 117.296 52.0203C117.815 52.7084 118.501 53.2529 119.289 53.6022C120.235 54.0065 121.213 54.3308 122.212 54.5717V59.9579C120.431 59.8234 118.733 59.1455 117.348 58.0155L116.208 60.4514C116.983 61.0921 117.863 61.5919 118.81 61.9283C119.848 62.2999 120.931 62.526 122.031 62.6002V65.4246H124.671V62.5478C126.137 62.3874 127.512 61.7563 128.591 60.7488C129.065 60.293 129.441 59.7435 129.692 59.135C129.944 58.5266 130.066 57.8724 130.052 57.214C130.096 56.2711 129.823 55.3407 129.276 54.5717V54.5717ZM122.212 51.5163C121.569 51.3212 120.971 51 120.454 50.5714C120.248 50.3887 120.086 50.1627 119.978 49.9098C119.871 49.6568 119.821 49.3832 119.831 49.1085C119.812 48.4851 120.041 47.8797 120.468 47.4251C120.94 46.9481 121.551 46.6312 122.212 46.5186V51.5163ZM126.146 58.964C125.7 59.4218 125.119 59.7248 124.489 59.8284V55.1946C125.092 55.3565 125.655 55.6386 126.146 56.0241C126.333 56.1832 126.48 56.3823 126.579 56.6064C126.678 56.8306 126.725 57.0742 126.716 57.319C126.741 57.9197 126.537 58.5073 126.146 58.964V58.964Z" fill="#1DAB87"/>
<path d="M65.2319 94.765C64.6914 94.7641 64.1662 94.5847 63.7379 94.2547C63.3095 93.9246 63.0019 93.4624 62.8628 92.9396L61.5445 87.9453C61.3795 87.3176 61.4699 86.65 61.7961 86.0889C62.1222 85.5279 62.6574 85.1192 63.2842 84.9526L104.875 73.9528C105.503 73.7889 106.17 73.8804 106.73 74.2074C107.291 74.5344 107.699 75.0702 107.866 75.6976L108.982 79.9288L108.773 79.945C98.1063 80.7751 87.9002 84.6459 79.3624 91.0993L79.3017 91.1287L65.8529 94.6844C65.6503 94.7379 65.4415 94.765 65.2319 94.765V94.765Z" fill="#2F2E41"/>
<path d="M58.3437 119.434C53.4649 118.712 48.7987 116.947 44.6635 114.257C42.6148 112.925 40.7182 111.373 39.0077 109.627C37.3195 107.904 35.7045 105.945 34.8683 103.65C34.0638 101.526 34.1052 99.1746 34.9841 97.0809C35.851 95 37.507 93.348 39.589 92.4872C41.6834 91.6512 44.2139 91.5618 46.2523 92.4773C47.2236 92.9035 48.0642 93.5806 48.6876 94.4393C48.9774 94.8352 49.192 95.281 49.3206 95.7546C49.44 96.1837 49.4509 96.6358 49.3522 97.0702C49.2327 97.5038 49.0219 97.9069 48.734 98.2524C48.4461 98.5978 48.0877 98.8776 47.6829 99.0731C46.7919 99.5306 45.8266 99.8253 44.8322 99.9433C43.8321 100.08 42.3954 100.204 41.5914 99.4004C41.4259 99.2415 41.2957 99.0494 41.2093 98.8367C41.1489 98.6738 41.1282 98.4989 41.1491 98.3264C41.1373 98.4024 41.1976 98.1611 41.1941 98.1707C41.1814 98.2064 41.1264 98.2933 41.2046 98.1597C41.2291 98.1157 41.2563 98.0733 41.2861 98.0327C41.2596 98.0671 41.2012 98.1245 41.3054 98.026C41.3916 97.9317 41.5023 97.8633 41.6251 97.8285C41.6735 97.8144 41.7226 97.8031 41.7712 97.7899C41.8945 97.7561 41.6482 97.7917 41.7744 97.7877C41.8231 97.7861 41.8724 97.7873 41.9209 97.7851C42.0447 97.7795 41.7988 97.7513 41.9174 97.7812C41.9635 97.7928 42.0091 97.8041 42.0545 97.8184C42.1532 97.8495 41.9847 97.746 42.0515 97.8235C42.1298 97.9143 41.9693 97.7351 42.0583 97.823C42.1026 97.8666 42.1444 97.9127 42.1834 97.961C42.3378 98.1136 42.546 98.1991 42.763 98.1991C42.9799 98.1991 43.1882 98.1136 43.3426 97.961C43.4917 97.8048 43.5749 97.597 43.5749 97.3809C43.5749 97.1649 43.4917 96.9571 43.3426 96.8009C42.5343 95.798 40.9378 96.0458 40.1202 96.8934C39.0774 97.9743 39.4903 99.6873 40.5046 100.63C41.6529 101.698 43.2791 101.772 44.7562 101.593C46.0044 101.474 47.2209 101.13 48.3471 100.578C49.4661 100.027 50.3413 99.081 50.8033 97.9219C51.0118 97.3034 51.0867 96.6475 51.023 95.9978C50.9594 95.3481 50.7585 94.7193 50.4339 94.153C49.1298 91.6993 46.4295 90.4412 43.7604 90.2233C42.3863 90.1156 41.0044 90.2817 39.6948 90.712C38.3852 91.1423 37.1738 91.8282 36.1308 92.7302C34.1205 94.5415 32.8826 97.0569 32.6731 99.756C32.4401 102.554 33.5249 105.272 35.1066 107.531C36.7624 109.825 38.7383 111.871 40.974 113.604C45.3448 117.096 50.4718 119.516 55.9446 120.67C56.5955 120.805 57.25 120.92 57.9079 121.016C58.1173 121.067 58.3381 121.036 58.5254 120.929C58.7128 120.823 58.8525 120.649 58.9162 120.443C58.9724 120.233 58.9439 120.01 58.8367 119.821C58.7296 119.632 58.5525 119.493 58.3437 119.434L58.3437 119.434Z" fill="#3F3D56"/>
<path d="M136.457 83.7791C129.309 83.6782 122.183 83.8597 115.08 84.3238C112.652 84.4825 110.551 85.3414 110.551 86.7849C110.551 87.9918 112.635 89.4058 115.08 89.246C122.179 88.782 129.305 88.6004 136.457 88.7013C142.287 88.7837 142.284 83.8614 136.457 83.7791Z" fill="#CCCCCC"/>
<path d="M125.892 88.4575C125.119 88.4575 106.972 88.4286 106.972 85.9197C106.972 83.4111 125.119 83.3822 125.892 83.3822C126.664 83.3822 144.812 83.4111 144.812 85.9197C144.812 88.4286 126.664 88.4575 125.892 88.4575ZM107.682 85.9197C108.178 86.6804 114.849 87.7575 125.892 87.7575C136.935 87.7575 143.605 86.6804 144.102 85.9197C143.605 85.1593 136.935 84.0822 125.892 84.0822C114.849 84.0822 108.178 85.1593 107.682 85.9197V85.9197Z" fill="#3F3D56"/>
<path d="M183.468 154.412C187.485 154.3 192.485 154.16 196.337 151.344C197.484 150.471 198.426 149.358 199.098 148.082C199.769 146.806 200.154 145.399 200.225 143.959C200.304 141.735 199.501 139.793 197.965 138.494C195.953 136.793 193.015 136.393 189.849 137.325L193.129 113.334L190.722 113.004L186.866 141.208L188.876 140.284C191.207 139.214 194.407 138.67 196.396 140.351C196.884 140.791 197.265 141.338 197.507 141.948C197.75 142.559 197.849 143.218 197.797 143.873C197.738 144.945 197.449 145.992 196.949 146.942C196.45 147.892 195.752 148.724 194.903 149.38C191.906 151.571 187.92 151.854 183.4 151.98L183.468 154.412Z" fill="#3F3D56"/>
<path d="M176.811 115.403H163.722V117.835H176.811V115.403Z" fill="#3F3D56"/>
<path d="M71.1549 105.952C70.5723 105.951 70.0093 105.741 69.567 105.362C69.1246 104.982 68.8317 104.457 68.7407 103.881L67.9417 98.7781C67.842 98.1363 68.0006 97.4811 68.383 96.9562C68.7653 96.4313 69.3401 96.0797 69.9811 95.9785L112.478 89.314C113.12 89.2141 113.774 89.3729 114.299 89.7556C114.823 90.1382 115.174 90.7135 115.275 91.355L116.074 96.4585C116.174 97.1003 116.016 97.7555 115.633 98.2804C115.251 98.8053 114.676 99.1569 114.035 99.2581L71.5379 105.922C71.4112 105.942 71.2831 105.952 71.1549 105.952Z" fill="#2F2E41"/>
<path d="M53.5676 46.1467C63.4169 46.1467 71.4013 38.1554 71.4013 28.2976C71.4013 18.4399 63.4169 10.4486 53.5676 10.4486C43.7183 10.4486 35.7339 18.4399 35.7339 28.2976C35.7339 38.1554 43.7183 46.1467 53.5676 46.1467Z" fill="#1DAB87"/>
<path d="M63.6645 32.9159C64.2344 32.7164 64.7551 32.3971 65.1915 31.9793C65.4802 31.6815 65.7004 31.3241 65.8366 30.9322C65.9728 30.5403 66.0217 30.1233 65.9799 29.7104C65.9557 29.4161 65.8638 29.1315 65.7114 28.8787C65.559 28.6259 65.3503 28.4117 65.1015 28.253C64.4561 27.8558 63.6033 27.8708 62.7422 28.2703L62.6428 21.3029L61.9436 21.3129L62.0604 29.5038L62.5927 29.1543C63.21 28.7498 64.097 28.4564 64.7351 28.8493C64.8929 28.9533 65.0246 29.0923 65.12 29.2556C65.2154 29.4188 65.2719 29.6019 65.2851 29.7906C65.3145 30.0982 65.2774 30.4085 65.1762 30.7004C65.0751 30.9923 64.9123 31.259 64.6989 31.4823C63.9409 32.2351 62.8188 32.4874 61.5381 32.7181L61.662 33.4069C62.3428 33.3034 63.013 33.1391 63.6645 32.9159V32.9159Z" fill="#2F2E41"/>
<path d="M69.8443 20.8139L66.1201 21.3784L66.2248 22.0703L69.949 21.5059L69.8443 20.8139Z" fill="#2F2E41"/>
<path d="M58.0889 22.5953L54.3647 23.1598L54.4695 23.8518L58.1936 23.2873L58.0889 22.5953Z" fill="#2F2E41"/>
<path d="M65.3528 105.64C64.7115 105.639 64.0857 105.442 63.5589 105.076C63.032 104.71 62.629 104.192 62.4035 103.591L50.1076 70.6339C48.6047 66.5919 48.7652 62.1183 50.5538 58.1946C52.3425 54.2708 55.6132 51.2174 59.6484 49.7043L69.6463 45.9678C70.0329 45.8223 70.4445 45.7548 70.8572 45.7692C71.27 45.7835 71.6759 45.8794 72.0514 46.0514C72.4261 46.2189 72.7637 46.4595 73.0444 46.7591C73.3251 47.0587 73.5433 47.4113 73.6863 47.7963L96.4633 90.8383C96.6112 91.2264 96.6809 91.64 96.6685 92.0552C96.6561 92.4704 96.5617 92.879 96.3909 93.2576C96.22 93.6362 95.9761 93.9772 95.6731 94.261C95.37 94.5449 95.0139 94.7659 94.6252 94.9115L66.4527 105.44C66.101 105.572 65.7285 105.64 65.3528 105.64Z" fill="#2F2E41"/>
<path d="M66.6128 47.1013L89.2123 77.3487L73.9202 47.4188C73.7939 47.0696 73.6001 46.7487 73.3499 46.4744C73.0996 46.2002 72.7979 45.978 72.4618 45.8205C72.1258 45.663 71.762 45.5733 71.3913 45.5565C71.0206 45.5398 70.6502 45.5963 70.3014 45.7228L66.6128 47.1013Z" fill="#E6E6E6"/>
<path d="M102.396 70.0724L62.0448 67.4709C61.4088 67.4299 60.7871 67.2639 60.2151 66.9824C59.6432 66.7009 59.1322 66.3095 58.7114 65.8303C58.2907 65.3512 57.9683 64.7938 57.7627 64.19C57.5572 63.5862 57.4725 62.9478 57.5135 62.3112C57.5544 61.6746 57.7203 61.0523 58.0015 60.4799C58.2828 59.9075 58.6739 59.3961 59.1526 58.9749C59.6313 58.5538 60.1882 58.2312 60.7915 58.0254C61.3948 57.8197 62.0327 57.7349 62.6688 57.7759L103.02 60.3772C103.318 60.3964 103.609 60.4741 103.877 60.6059C104.145 60.7377 104.384 60.921 104.581 61.1454C104.778 61.3698 104.929 61.6308 105.026 61.9136C105.122 62.1964 105.162 62.4954 105.142 62.7935L104.811 67.9484C104.772 68.5505 104.496 69.1125 104.043 69.5108C103.59 69.9091 102.998 70.1111 102.396 70.0724Z" fill="#1DAB87"/>
<path d="M91.614 71.7401C91.5607 71.7401 91.5073 71.7384 91.4538 71.735H91.4537L58.3193 69.5988C57.9985 69.5782 57.6849 69.4945 57.3964 69.3526C57.108 69.2106 56.8503 69.0132 56.6381 68.7716C56.4258 68.5299 56.2632 68.2488 56.1596 67.9443C56.0559 67.6397 56.0132 67.3178 56.0339 66.9967L56.6005 58.1918C56.6212 57.8707 56.7048 57.5569 56.8467 57.2682C56.9885 56.9795 57.1858 56.7216 57.4273 56.5092C57.6687 56.2968 57.9496 56.1341 58.2539 56.0304C58.5582 55.9266 58.8799 55.8839 59.2007 55.9046L92.3351 58.0406C92.9826 58.083 93.5869 58.3808 94.0153 58.8687C94.4438 59.3565 94.6613 59.9945 94.6204 60.6427L94.0538 69.4478C94.0226 69.9196 93.856 70.3723 93.574 70.7517C93.2921 71.131 92.9067 71.4209 92.4641 71.5864C92.1923 71.6882 91.9043 71.7403 91.614 71.7401V71.7401Z" fill="#2F2E41"/>
<path d="M53.3631 16.4283C55.7092 14.4088 58.9309 16.2154 61.6214 15.8991C64.1955 15.5965 66.228 13.2856 66.7472 10.8305C67.353 7.9663 65.8676 5.09675 63.6782 3.31094C61.2803 1.35504 58.1 0.793552 55.0864 1.15541C51.6324 1.57014 48.4735 3.18157 45.6391 5.13068C42.9031 6.95377 40.3872 9.08758 38.1413 11.4895C36.1303 13.7125 34.4264 16.3622 33.8823 19.3535C33.3879 22.072 33.7654 25.0845 35.3711 27.3874C36.2225 28.5678 37.3635 29.5086 38.684 30.1191C40.0609 30.7958 41.5296 31.2795 42.8635 32.0446C44.8803 33.2014 46.8406 35.6 46.2088 38.0961C46.0733 38.6414 45.806 39.145 45.4304 39.5625C44.9791 40.0639 44.165 39.4013 44.6175 38.8986C45.4123 38.0156 45.381 36.8379 44.9574 35.7837C44.4538 34.5957 43.5619 33.6141 42.428 32.9998C41.0317 32.2008 39.4902 31.7076 38.0591 30.9799C36.6893 30.3151 35.5003 29.3289 34.5933 28.1052C32.8805 25.7229 32.3681 22.6224 32.7566 19.7543C33.1769 16.6505 34.7703 13.8301 36.7676 11.4666C38.9413 8.89441 41.6114 6.71715 44.3391 4.76116C47.2659 2.66238 50.4995 0.888003 54.0777 0.24624C57.1795 -0.310069 60.5415 0.0324296 63.2538 1.72419C65.7856 3.30333 67.727 6.01977 67.9201 9.05513C67.9894 10.4362 67.6898 11.8108 67.0521 13.0375C66.4144 14.2642 65.4616 15.2987 64.2917 16.0345C63.0914 16.7534 61.6958 17.077 60.3019 16.9596C58.8117 16.8641 57.3201 16.4074 55.8203 16.5342C55.1417 16.5754 54.495 16.837 53.9782 17.2791C53.4656 17.7204 52.8547 16.8659 53.3631 16.4283V16.4283Z" fill="#2F2E41"/>
<path d="M258.583 209H0.416132C0.305915 209 0.200325 208.956 0.122503 208.878C0.0446805 208.799 0.000976562 208.694 0.000976562 208.583C0.000976562 208.473 0.0446805 208.367 0.122503 208.289C0.200325 208.211 0.305915 208.167 0.416132 208.167H258.583C258.694 208.167 258.8 208.21 258.878 208.289C258.956 208.367 259 208.473 259 208.583C259 208.694 258.956 208.8 258.878 208.878C258.8 208.956 258.694 209 258.583 209V209Z" fill="#3F3D56"/>
</g>
<defs>
<clipPath id="clip0_751_3568">
<rect width="259" height="209" fill="white"/>
</clipPath>
</defs>
</svg>
