<svg width="60" height="82" viewBox="0 0 60 82" fill="none" xmlns="http://www.w3.org/2000/svg">
<rect width="60" height="82" rx="16" fill="#1DAB87"/>
<path d="M36 33.8H42V36.2H39.6V51.8C39.6 52.1183 39.4736 52.4235 39.2485 52.6485C39.0235 52.8736 38.7183 53 38.4 53H21.6C21.2817 53 20.9765 52.8736 20.7515 52.6485C20.5264 52.4235 20.4 52.1183 20.4 51.8V36.2H18V33.8H24V30.2C24 29.8817 24.1264 29.5765 24.3515 29.3515C24.5765 29.1264 24.8817 29 25.2 29H34.8C35.1183 29 35.4235 29.1264 35.6485 29.3515C35.8736 29.5765 36 29.8817 36 30.2V33.8ZM37.2 36.2H22.8V50.6H37.2V36.2ZM26.4 39.8H28.8V47H26.4V39.8ZM31.2 39.8H33.6V47H31.2V39.8ZM26.4 31.4V33.8H33.6V31.4H26.4Z" fill="white"/>
</svg>
