<svg width="22" height="22" viewBox="0 0 22 22" fill="none" xmlns="http://www.w3.org/2000/svg">
<path d="M4.55658 9.58833C6.23659 12.89 8.94325 15.585 12.2449 17.2767L14.8116 14.71C15.1266 14.395 15.5933 14.29 16.0016 14.43C17.3083 14.8617 18.7199 15.095 20.1666 15.095C20.8083 15.095 21.3333 15.62 21.3333 16.2617V20.3333C21.3333 20.975 20.8083 21.5 20.1666 21.5C9.21159 21.5 0.333252 12.6217 0.333252 1.66667C0.333252 1.025 0.858252 0.5 1.49992 0.5H5.58325C6.22492 0.5 6.74992 1.025 6.74992 1.66667C6.74992 3.125 6.98325 4.525 7.41492 5.83167C7.54325 6.24 7.44992 6.695 7.12325 7.02167L4.55658 9.58833Z" fill="black"/>
</svg>
