<svg width="38" height="38" viewBox="0 0 38 38" fill="none" xmlns="http://www.w3.org/2000/svg">
<path fill-rule="evenodd" clip-rule="evenodd" d="M3.2563 23.666C1.45938 23.666 0 25.1308 0 26.9346C0 28.7383 1.45938 30.2186 3.2563 30.2186C3.60761 30.2186 3.95325 30.1598 4.28543 30.0489C9.58866 38.2102 20.1116 40.0934 27.8167 35.6764C28.0418 35.5473 28.1296 35.2241 28.0009 34.9981C27.8723 34.7721 27.5503 34.6839 27.3251 34.813C20.0822 38.9651 10.1943 37.2439 5.16094 29.5864C5.97891 28.99 6.5126 28.0235 6.5126 26.9346C6.5126 25.1308 5.05337 23.666 3.2563 23.666Z" fill="#1DAB87"/>
<path fill-rule="evenodd" clip-rule="evenodd" d="M27.8164 5.27438C27.4058 5.32677 27.2821 6.00426 27.6475 6.19943C33.4468 9.74856 36.6849 16.6935 35.2659 23.714C35.0962 23.6851 34.9197 23.6678 34.7437 23.6678C32.9468 23.6678 31.4874 25.1327 31.4874 26.9364C31.4874 28.7401 32.9468 30.2204 34.7437 30.2204C36.5406 30.2204 38 28.7401 38 26.9364C38 25.6618 37.2715 24.557 36.2029 24.0224C37.7607 16.5558 34.3326 9.13246 28.1544 5.3515C28.0724 5.29916 27.9748 5.27194 27.8778 5.27441C27.8571 5.27311 27.8371 5.27309 27.8164 5.27438Z" fill="#1DAB87"/>
<path fill-rule="evenodd" clip-rule="evenodd" d="M18.9998 0C17.2671 0 15.8585 1.36881 15.7589 3.08355C8.33286 4.46262 2.92191 10.3609 1.68929 17.3604C1.67515 17.4254 1.67426 17.4926 1.68667 17.558C1.69908 17.6234 1.72453 17.6855 1.76149 17.7408C1.79846 17.796 1.84617 17.8432 1.90177 17.8794C1.95736 17.9157 2.01968 17.9403 2.08499 17.9517C2.15029 17.9632 2.21723 17.9612 2.28177 17.946C2.34631 17.9308 2.40712 17.9027 2.46055 17.8633C2.51398 17.8239 2.55891 17.7741 2.59266 17.7168C2.6264 17.6595 2.64826 17.596 2.6569 17.53C3.81471 10.9556 8.87007 5.40845 15.8356 4.0703C16.1925 5.489 17.4776 6.53714 18.9998 6.53714C20.7967 6.53714 22.2561 5.07232 22.2561 3.26857C22.2561 1.46482 20.7967 0 18.9998 0Z" fill="#1DAB87"/>
</svg>
