<svg width="40" height="40" viewBox="0 0 40 40" fill="none" xmlns="http://www.w3.org/2000/svg">
<rect width="40" height="40" rx="12" fill="#F9FAFB"/>
<path d="M15.3845 17.7105C15.3845 17.9574 15.1777 18.1578 14.9229 18.1578H13.0768C12.822 18.1578 12.6152 17.9574 12.6152 17.7105V15.921C12.6152 15.6741 12.822 15.4736 13.0768 15.4736H14.9229C15.1777 15.4736 15.3845 15.6741 15.3845 15.921V17.7105Z" fill="url(#paint0_linear_745_3566)"/>
<path d="M30.6154 11H9.38462C8.62123 11 8 11.6022 8 12.3421V26.6579C8 27.3978 8.62123 28 9.38462 28H30.6154C31.3788 28 32 27.3978 32 26.6579V12.3421C32 11.6022 31.3788 11 30.6154 11ZM31.0769 26.6579C31.0769 26.9048 30.8702 27.1053 30.6154 27.1053H9.38462C9.12985 27.1053 8.92308 26.9048 8.92308 26.6579V12.3421C8.92308 12.0952 9.12985 11.8947 9.38462 11.8947H30.6154C30.8702 11.8947 31.0769 12.0952 31.0769 12.3421V26.6579Z" fill="url(#paint1_linear_745_3566)"/>
<path d="M15.8462 13.6843H12.1539C11.3905 13.6843 10.7693 14.2865 10.7693 15.0264V18.6054C10.7693 19.3453 11.3905 19.9475 12.1539 19.9475H15.8462C16.6096 19.9475 17.2308 19.3453 17.2308 18.6054V15.0264C17.2308 14.2865 16.6096 13.6843 15.8462 13.6843ZM16.3077 18.6054C16.3077 18.8523 16.101 19.0527 15.8462 19.0527H12.1539C11.8991 19.0527 11.6924 18.8523 11.6924 18.6054V15.0264C11.6924 14.7795 11.8991 14.5791 12.1539 14.5791H15.8462C16.101 14.5791 16.3077 14.7795 16.3077 15.0264V18.6054Z" fill="url(#paint2_linear_745_3566)"/>
<path d="M11.6924 23.5264H10.7693V25.3158H11.6924V23.5264Z" fill="url(#paint3_linear_745_3566)"/>
<path d="M13.5383 21.7368H12.6152V25.3158H13.5383V21.7368Z" fill="url(#paint4_linear_745_3566)"/>
<path d="M15.3847 21.7368H14.4617V25.3158H15.3847V21.7368Z" fill="url(#paint5_linear_745_3566)"/>
<path d="M17.2309 23.5264H16.3079V25.3158H17.2309V23.5264Z" fill="url(#paint6_linear_745_3566)"/>
<path d="M27.5337 18.4967C27.7322 18.1271 27.8462 17.708 27.8462 17.2633V16.3685C27.8462 14.8882 26.6042 13.6843 25.0769 13.6843C23.5497 13.6843 22.3077 14.8882 22.3077 16.3685V17.2633C22.3077 17.708 22.4217 18.1271 22.6202 18.4967C21.5656 19.25 20.9231 20.453 20.9231 21.737V22.6317C20.9231 23.1251 21.3371 23.5264 21.8462 23.5264H28.3077C28.8168 23.5264 29.2308 23.1251 29.2308 22.6317V21.737C29.2308 20.453 28.5883 19.25 27.5337 18.4967ZM23.2308 16.3685C23.2308 15.3816 24.0588 14.5791 25.0769 14.5791C26.0951 14.5791 26.9231 15.3816 26.9231 16.3685V17.2633C26.9231 18.2502 26.0951 19.0527 25.0769 19.0527C24.0588 19.0527 23.2308 18.2502 23.2308 17.2633V16.3685ZM28.3077 22.6317H21.8462V21.737C21.8462 20.7344 22.3502 19.7963 23.1759 19.2102C23.6725 19.6656 24.3408 19.9475 25.0769 19.9475C25.8131 19.9475 26.4814 19.6661 26.9776 19.2102C27.8037 19.7963 28.3077 20.7344 28.3077 21.737V22.6317Z" fill="url(#paint7_linear_745_3566)"/>
<path d="M29.2308 24.4211H20.9231V25.3159H29.2308V24.4211Z" fill="url(#paint8_linear_745_3566)"/>
<defs>
<linearGradient id="paint0_linear_745_3566" x1="13.9998" y1="15.3618" x2="13.9998" y2="18.4934" gradientUnits="userSpaceOnUse">
<stop stop-color="#6DC7FF"/>
<stop offset="1" stop-color="#E6ABFF"/>
</linearGradient>
<linearGradient id="paint1_linear_745_3566" x1="20" y1="10.9441" x2="20" y2="28.3557" gradientUnits="userSpaceOnUse">
<stop stop-color="#1A6DFF"/>
<stop offset="1" stop-color="#C822FF"/>
</linearGradient>
<linearGradient id="paint2_linear_745_3566" x1="14.0001" y1="10.9442" x2="14.0001" y2="28.3559" gradientUnits="userSpaceOnUse">
<stop stop-color="#1A6DFF"/>
<stop offset="1" stop-color="#C822FF"/>
</linearGradient>
<linearGradient id="paint3_linear_745_3566" x1="11.2308" y1="10.9441" x2="11.2308" y2="28.3558" gradientUnits="userSpaceOnUse">
<stop stop-color="#1A6DFF"/>
<stop offset="1" stop-color="#C822FF"/>
</linearGradient>
<linearGradient id="paint4_linear_745_3566" x1="13.0768" y1="10.9441" x2="13.0768" y2="28.3557" gradientUnits="userSpaceOnUse">
<stop stop-color="#1A6DFF"/>
<stop offset="1" stop-color="#C822FF"/>
</linearGradient>
<linearGradient id="paint5_linear_745_3566" x1="14.9232" y1="10.9441" x2="14.9232" y2="28.3557" gradientUnits="userSpaceOnUse">
<stop stop-color="#1A6DFF"/>
<stop offset="1" stop-color="#C822FF"/>
</linearGradient>
<linearGradient id="paint6_linear_745_3566" x1="16.7694" y1="10.9441" x2="16.7694" y2="28.3558" gradientUnits="userSpaceOnUse">
<stop stop-color="#1A6DFF"/>
<stop offset="1" stop-color="#C822FF"/>
</linearGradient>
<linearGradient id="paint7_linear_745_3566" x1="25.0769" y1="10.9442" x2="25.0769" y2="28.3559" gradientUnits="userSpaceOnUse">
<stop stop-color="#1A6DFF"/>
<stop offset="1" stop-color="#C822FF"/>
</linearGradient>
<linearGradient id="paint8_linear_745_3566" x1="25.0769" y1="10.9442" x2="25.0769" y2="28.3558" gradientUnits="userSpaceOnUse">
<stop stop-color="#1A6DFF"/>
<stop offset="1" stop-color="#C822FF"/>
</linearGradient>
</defs>
</svg>
