<svg width="32" height="32" viewBox="0 0 32 32" fill="none" xmlns="http://www.w3.org/2000/svg">
<g clip-path="url(#clip0_401_2960)">
<path fill-rule="evenodd" clip-rule="evenodd" d="M9.17191 21.2157H2.69275V23.0067H0.273476C0.273476 18.8179 -0.856733 13.0888 1.474 9.635L2.60421 5.34111C2.93754 4.17429 3.49743 3.11541 4.58858 3.11541H17.9219C19.0131 3.11541 19.6433 4.15387 19.9063 5.34111L20.7891 9.62625L21.0261 10.2855H14.711C14.2832 10.2801 13.8597 10.3821 13.4717 10.584C13.0837 10.7859 12.741 11.0826 12.4688 11.4523C12.0317 12.0551 11.7059 12.7492 11.5105 13.4943L10.5 17.6423H6.20316V19.5267H9.65368C9.44988 20.0731 9.28869 20.6382 9.17191 21.2157ZM19.9558 4.72853L21.375 0.201276L23.2344 4.13345L26.7552 0L25.9193 5.9216L31.0443 3.99052L28.0417 8.67821L32 10.0667L28.4844 12.1378C28.958 12.6145 29.2814 13.25 29.4063 13.9493L30.2865 18.5991C32.4896 22.3912 31.3282 27.0119 31.3282 32H28.9063V30.2031H12.8047V31.9971H10.3802C10.3802 27.7965 9.24743 22.0791 11.5834 18.5962L12.7214 13.9464C13.0547 12.7796 13.6146 11.7207 14.711 11.7207H27.4167C27.5038 11.7203 27.5909 11.7271 27.6771 11.7411L27.5469 11.464L29.4948 10.3176L26.4844 9.26162L28.5235 6.07913L24.7188 7.51139L25.3204 3.24667L23.0105 5.96244L21.5547 2.88496L20.8672 5.0815L19.9558 4.72853ZM16.3099 26.621H25.2839V28.5112H16.3204V26.621H16.3099ZM11.336 22.2162C13.1589 22.2804 14.4297 23.138 14.7214 24.9203H11.336V22.2162ZM30.1198 22.2162C28.2969 22.2804 27.0261 23.138 26.7344 24.9203H30.1198V22.2162ZM12.6094 18.5991H29.0964L28.4558 14.5852C28.2787 13.6722 27.7735 12.8875 26.9401 12.8875H15.0756C14.2422 12.8933 13.8021 13.7101 13.5599 14.5852L12.6094 18.5991ZM1.23702 13.2463C3.05993 13.3105 4.32556 14.1652 4.62243 15.9446H1.23702V13.2463ZM2.49743 9.62625H19.6016L18.961 5.97703C18.7839 5.06983 18.2787 4.28514 17.448 4.28514H4.94796C4.11462 4.28514 3.69014 5.09025 3.43493 5.97703L2.49743 9.62625Z" fill="black"/>
</g>
<defs>
<clipPath id="clip0_401_2960">
<rect width="32" height="32" fill="white"/>
</clipPath>
</defs>
</svg>
