<svg width="32" height="24" viewBox="0 0 32 24" fill="none" xmlns="http://www.w3.org/2000/svg">
<path fill-rule="evenodd" clip-rule="evenodd" d="M9.17191 15.9118H2.69275V17.2551H0.273476C0.273476 14.1134 -0.856733 9.81659 1.474 7.22625L2.60421 4.00583C2.93754 3.13072 3.49743 2.33655 4.58858 2.33655H17.9219C19.0131 2.33655 19.6433 3.11541 19.9063 4.00583L20.7891 7.21969L21.0261 7.71413H14.711C14.2832 7.71007 13.8597 7.78657 13.4717 7.93801C13.0837 8.08944 12.741 8.31197 12.4688 8.58924C12.0317 9.04131 11.7059 9.56189 11.5105 10.1207L10.5 13.2317H6.20316V14.645H9.65368C9.44988 15.0548 9.28869 15.4786 9.17191 15.9118ZM19.9558 3.5464L21.375 0.150957L23.2344 3.10009L26.7552 0L25.9193 4.4412L31.0443 2.99289L28.0417 6.50866L32 7.55005L28.4844 9.10337C28.958 9.46091 29.2814 9.93747 29.4063 10.462L30.2865 13.9493C32.4896 16.7934 31.3282 20.2589 31.3282 24H28.9063V22.6523H12.8047V23.9978H10.3802C10.3802 20.8474 9.24743 16.5593 11.5834 13.9471L12.7214 10.4598C13.0547 9.58469 13.6146 8.79052 14.711 8.79052H27.4167C27.5038 8.79024 27.5909 8.79536 27.6771 8.80583L27.5469 8.59799L29.4948 7.73819L26.4844 6.94622L28.5235 4.55934L24.7188 5.63355L25.3204 2.435L23.0105 4.47183L21.5547 2.16372L20.8672 3.81112L19.9558 3.5464ZM16.3099 19.9657H25.2839V21.3834H16.3204V19.9657H16.3099ZM11.336 16.6622C13.1589 16.7103 14.4297 17.3535 14.7214 18.6902H11.336V16.6622ZM30.1198 16.6622C28.2969 16.7103 27.0261 17.3535 26.7344 18.6902H30.1198V16.6622ZM12.6094 13.9493H29.0964L28.4558 10.9389C28.2787 10.2541 27.7735 9.66563 26.9401 9.66563H15.0756C14.2422 9.67001 13.8021 10.2826 13.5599 10.9389L12.6094 13.9493ZM1.23702 9.93473C3.05993 9.98286 4.32556 10.6239 4.62243 11.9584H1.23702V9.93473ZM2.49743 7.21969H19.6016L18.961 4.48277C18.7839 3.80237 18.2787 3.21386 17.448 3.21386H4.94796C4.11462 3.21386 3.69014 3.81768 3.43493 4.48277L2.49743 7.21969Z" fill="black"/>
</svg>
