<svg width="48" height="48" viewBox="0 0 48 48" fill="none" xmlns="http://www.w3.org/2000/svg">
<rect width="48" height="48" rx="12" fill="#F9FAFB"/>
<path d="M24 13C30.0753 13 35 17.9247 35 24C35 30.0753 30.0753 35 24 35C17.9247 35 13 30.0753 13 24C13 17.9247 17.9247 13 24 13ZM24.4026 25.5026L20.5867 32.1136C22.1355 32.7616 23.8365 32.9562 25.4916 32.6746C25.1993 30.6191 25.4984 28.5229 26.354 26.6312L24.4026 25.5026ZM28.2724 27.7367C27.7016 29.0878 27.4796 30.5608 27.6267 32.0201C28.9618 31.4147 30.1251 30.4862 31.0114 29.3185L28.2724 27.7367ZM20.5449 23.2762C19.3345 24.9631 17.6692 26.2709 15.7434 27.047C16.3252 28.6213 17.3445 29.9967 18.6815 31.0114L22.4974 24.4026L20.5449 23.2762ZM32.7582 23.1332L32.4744 23.2652C31.2548 23.8676 30.1927 24.7464 29.3724 25.8315L32.1136 27.4144C32.683 26.0633 32.9046 24.591 32.7582 23.1321V23.1332ZM15.2 24C15.2 24.2926 15.2143 24.583 15.2418 24.8679C16.5788 24.2662 17.7431 23.3379 18.6276 22.1685L15.8864 20.5867C15.4319 21.6672 15.1985 22.8278 15.2 24ZM29.3185 16.9886L25.5026 23.5974L27.4551 24.7249C28.6655 23.037 30.3313 21.7284 32.2577 20.9519C31.7168 19.4914 30.7987 18.2002 29.5968 17.2097L29.3185 16.9886ZM24 15.2C23.4907 15.2 22.9924 15.244 22.5073 15.3265C22.8002 17.382 22.501 19.4784 21.6449 21.3699L23.5974 22.4974L27.4133 15.8864C26.3328 15.4319 25.1722 15.1985 24 15.2ZM20.3733 15.981L20.1632 16.0778C18.9152 16.6844 17.8277 17.5764 16.9886 18.6815L19.7276 20.2633C20.2982 18.9125 20.5202 17.44 20.3733 15.981Z" fill="#1DAB87"/>
</svg>
