<svg width="48" height="48" viewBox="0 0 48 48" fill="none" xmlns="http://www.w3.org/2000/svg">
<rect width="48" height="48" rx="12" fill="#F9FAFB"/>
<path d="M23.9999 13.9962C28.0498 13.9962 31.3565 17.191 31.4957 21.2453L31.4999 21.4962V25.5932L32.8799 28.7492C32.9489 28.9071 32.9846 29.0776 32.9846 29.25C32.9846 29.9403 32.4249 30.5 31.7346 30.5L26.9999 30.5015C26.9999 32.1583 25.6567 33.5015 23.9999 33.5015C22.4022 33.5015 21.0962 32.2526 21.005 30.6778L20.9994 30.4992L16.2747 30.5C16.1034 30.5 15.9339 30.4648 15.7767 30.3965C15.1435 30.1215 14.8532 29.3852 15.1282 28.752L16.4999 25.5941V21.4961C16.5005 17.3413 19.852 13.9962 23.9999 13.9962ZM25.4994 30.4992L22.4999 30.5015C22.4999 31.3299 23.1714 32.0015 23.9999 32.0015C24.7796 32.0015 25.4203 31.4066 25.493 30.6459L25.4994 30.4992ZM23.9999 15.4962C20.6797 15.4962 18.0003 18.1705 17.9999 21.4962V25.9058L16.6559 29H31.3524L29.9999 25.9068L30 21.5091L29.9962 21.2839C29.8852 18.0504 27.2414 15.4962 23.9999 15.4962Z" fill="#1D2734"/>
</svg>
