<svg width="48" height="48" viewBox="0 0 48 48" fill="none" xmlns="http://www.w3.org/2000/svg">
<rect width="48" height="48" rx="12" fill="#F9FAFB"/>
<path d="M21.8334 26.1667L33.75 14.25" stroke="#FB923C" stroke-width="1.5" stroke-linecap="round" stroke-linejoin="round"/>
<path d="M33.7496 14.25L26.7079 33.75C26.6604 33.8537 26.5841 33.9416 26.4881 34.0032C26.392 34.0649 26.2803 34.0976 26.1663 34.0976C26.0522 34.0976 25.9405 34.0649 25.8444 34.0032C25.7484 33.9416 25.6721 33.8537 25.6246 33.75L21.8329 26.1667L14.2496 22.375C14.1459 22.3275 14.058 22.2512 13.9964 22.1551C13.9347 22.0591 13.902 21.9474 13.902 21.8333C13.902 21.7192 13.9347 21.6075 13.9964 21.5115C14.058 21.4155 14.1459 21.3392 14.2496 21.2917L33.7496 14.25Z" stroke="#FB923C" stroke-width="1.5" stroke-linecap="round" stroke-linejoin="round"/>
</svg>
