<svg width="294" height="40" viewBox="0 0 294 40" fill="none" xmlns="http://www.w3.org/2000/svg">
<g clip-path="url(#clip0_101_13215)">
<path d="M32.2568 0C32.7478 0 33.1774 0.18412 33.5457 0.55236C33.9139 0.9206 34.098 1.35021 34.098 1.8412V37.087C34.098 37.578 33.9139 38.0076 33.5457 38.3758C33.1774 38.7441 32.7478 38.9282 32.2568 38.9282H27.6275C26.9963 38.9282 26.4878 38.6827 26.102 38.1917L0.377804 2.94592C0.167382 2.66535 0.0446351 2.34972 0.00956466 1.99902C-0.0255058 1.64831 0.0358676 1.31514 0.193685 0.999508C0.351502 0.683874 0.57946 0.43838 0.877558 0.263028C1.17566 0.0876759 1.50006 0 1.85076 0H6.48006C6.76063 0 7.04119 0.0613737 7.32175 0.18412C7.60232 0.306867 7.81274 0.490987 7.95302 0.73648L26.4176 25.8294V1.8412C26.4176 1.35021 26.593 0.9206 26.9437 0.55236C27.2944 0.18412 27.7328 0 28.2588 0H32.2568ZM5.84879 25.5138C6.33978 25.5138 6.76939 25.6891 7.13763 26.0398C7.50587 26.3905 7.68999 26.8289 7.68999 27.355V37.087C7.68999 37.578 7.50587 38.0076 7.13763 38.3758C6.76939 38.7441 6.33978 38.9282 5.84879 38.9282H1.85076C1.35978 38.9282 0.930164 38.7441 0.561924 38.3758C0.193685 38.0076 0.00956466 37.578 0.00956466 37.087V27.355C0.00956466 26.8289 0.193685 26.3905 0.561924 26.0398C0.930164 25.6891 1.35978 25.5138 1.85076 25.5138H5.84879ZM70.4486 31.4582C70.9746 31.4582 71.413 31.6423 71.7637 32.0106C72.1144 32.3788 72.2898 32.8259 72.2898 33.352V37.1922C72.2898 37.6832 72.1144 38.1128 71.7637 38.4811C71.413 38.8493 70.9746 39.0334 70.4486 39.0334H44.4614C43.9704 39.0334 43.5408 38.8493 43.1725 38.4811C42.8043 38.1128 42.6202 37.6832 42.6202 37.1922V33.352C42.6202 32.8259 42.8043 32.3788 43.1725 32.0106C43.5408 31.6423 43.9704 31.4582 44.4614 31.4582H70.4486ZM44.4614 23.3043C43.9704 23.3043 43.5408 23.1202 43.1725 22.752C42.8043 22.3837 42.6202 21.9541 42.6202 21.4631V17.5177C42.6202 17.0267 42.8043 16.5971 43.1725 16.2289C43.5408 15.8606 43.9704 15.6765 44.4614 15.6765H68.0813C68.6074 15.6765 69.0545 15.8606 69.4228 16.2289C69.791 16.5971 69.9751 17.0267 69.9751 17.5177V21.4631C69.9751 21.9541 69.791 22.3837 69.4228 22.752C69.0545 23.1202 68.6074 23.3043 68.0813 23.3043H44.4614ZM70.4486 0C70.9746 0 71.413 0.18412 71.7637 0.55236C72.1144 0.9206 72.2898 1.35021 72.2898 1.8412V5.68141C72.2898 6.20747 72.1144 6.65462 71.7637 7.02286C71.413 7.3911 70.9746 7.57522 70.4486 7.57522H44.4614C43.9704 7.57522 43.5408 7.3911 43.1725 7.02286C42.8043 6.65462 42.6202 6.20747 42.6202 5.68141V1.8412C42.6202 1.35021 42.8043 0.9206 43.1725 0.55236C43.5408 0.18412 43.9704 0 44.4614 0H70.4486Z" fill="#393E46"/>
<path fill-rule="evenodd" clip-rule="evenodd" d="M81.4117 24.3098C79.566 24.3098 78.0669 25.8145 78.0669 27.6673C78.0669 29.5201 79.566 31.0405 81.4117 31.0405C81.7726 31.0405 82.1276 30.9802 82.4688 30.8663C87.9163 39.2495 98.7253 41.1839 106.64 36.6468C106.871 36.5141 106.961 36.1822 106.829 35.95C106.697 35.7178 106.366 35.6273 106.135 35.7599C98.6952 40.0249 88.5384 38.2569 83.3682 30.3912C84.2084 29.7786 84.7566 28.7857 84.7566 27.6673C84.7566 25.8145 83.2577 24.3098 81.4117 24.3098Z" fill="#1D3A70"/>
<path fill-rule="evenodd" clip-rule="evenodd" d="M106.64 5.41628C106.218 5.4701 106.091 6.166 106.467 6.36649C112.423 10.0121 115.75 17.1459 114.292 24.3573C114.118 24.3276 113.936 24.3099 113.756 24.3099C111.91 24.3099 110.411 25.8145 110.411 27.6673C110.411 29.5201 111.91 31.0406 113.756 31.0406C115.601 31.0406 117.1 29.5201 117.1 27.6673C117.1 26.3581 116.352 25.2233 115.255 24.6741C116.855 17.0045 113.333 9.37926 106.987 5.4955C106.903 5.44173 106.803 5.41378 106.703 5.41631C106.682 5.41498 106.661 5.41495 106.64 5.41628Z" fill="#1D3A70"/>
<path fill-rule="evenodd" clip-rule="evenodd" d="M97.5836 3.05176e-05C95.8038 3.05176e-05 94.3569 1.40606 94.2546 3.16742C86.6266 4.58399 81.0685 10.6426 79.8024 17.8325C79.7879 17.8993 79.787 17.9683 79.7997 18.0354C79.8124 18.1026 79.8386 18.1665 79.8766 18.2232C79.9145 18.2799 79.9635 18.3284 80.0206 18.3656C80.0777 18.4028 80.1418 18.4281 80.2088 18.4399C80.2759 18.4516 80.3447 18.4496 80.411 18.434C80.4773 18.4184 80.5397 18.3895 80.5946 18.3491C80.6495 18.3086 80.6957 18.2574 80.7303 18.1986C80.765 18.1397 80.7874 18.0745 80.7963 18.0067C81.9856 11.2535 87.1784 5.55554 94.3333 4.18101C94.7 5.63828 96.0201 6.71492 97.5836 6.71492C99.4293 6.71492 100.928 5.21027 100.928 3.35747C100.928 1.50468 99.4293 3.05176e-05 97.5836 3.05176e-05Z" fill="#1D3A70"/>
<path d="M158.38 0C158.867 0 159.294 0.182643 159.659 0.547929C160.024 0.913215 160.207 1.33938 160.207 1.82643V36.7895C160.207 37.2766 160.024 37.7027 159.659 38.068C159.294 38.4333 158.867 38.6159 158.38 38.6159H154.414C153.893 38.6159 153.458 38.4333 153.11 38.068C152.762 37.7027 152.588 37.2766 152.588 36.7895V13.2025L142.934 25.6222C142.551 26.0745 142.064 26.3006 141.473 26.3006C141.195 26.3006 140.916 26.2397 140.638 26.1179C140.36 25.9962 140.151 25.8135 140.012 25.57L122.895 2.92229C122.687 2.67876 122.565 2.37436 122.53 2.00907C122.495 1.64379 122.565 1.31329 122.739 1.01758C122.913 0.721874 123.139 0.478351 123.417 0.287011C123.696 0.0956705 124.009 0 124.357 0H128.949C129.54 0 130.027 0.243525 130.41 0.730572L141.473 15.342L152.275 0.730572C152.658 0.243525 153.162 0 153.788 0H158.38ZM128.323 25.3091C128.81 25.3091 129.236 25.483 129.601 25.8309C129.966 26.1788 130.149 26.6137 130.149 27.1355V36.7895C130.149 37.2766 129.966 37.7027 129.601 38.068C129.236 38.4333 128.81 38.6159 128.323 38.6159H124.357C123.87 38.6159 123.443 38.4333 123.078 38.068C122.713 37.7027 122.53 37.2766 122.53 36.7895V27.1355C122.53 26.6137 122.713 26.1788 123.078 25.8309C123.443 25.483 123.87 25.3091 124.357 25.3091H128.323ZM174.453 15.4986C174.975 15.4986 175.41 15.6812 175.758 16.0465C176.105 16.4118 176.279 16.8553 176.279 17.3772V36.8939C176.279 37.3809 176.105 37.8071 175.758 38.1724C175.41 38.5377 174.975 38.7203 174.453 38.7203H170.487C170 38.7203 169.574 38.5377 169.209 38.1724C168.843 37.8071 168.661 37.3809 168.661 36.8939V17.3772C168.661 16.8553 168.843 16.4118 169.209 16.0465C169.574 15.6812 170 15.4986 170.487 15.4986H174.453ZM174.453 0C174.975 0 175.41 0.182643 175.758 0.547929C176.105 0.913215 176.279 1.33938 176.279 1.82643V11.4804C176.279 12.0023 176.105 12.4458 175.758 12.8111C175.41 13.1764 174.975 13.359 174.453 13.359H170.487C170 13.359 169.574 13.1764 169.209 12.8111C168.843 12.4458 168.661 12.0023 168.661 11.4804V1.82643C168.661 1.33938 168.843 0.913215 169.209 0.547929C169.574 0.182643 170 0 170.487 0H174.453ZM216.722 0C217.209 0 217.635 0.182643 218 0.547929C218.366 0.913215 218.548 1.33938 218.548 1.82643V36.7895C218.548 37.2766 218.366 37.7027 218 38.068C217.635 38.4333 217.209 38.6159 216.722 38.6159H212.13C211.503 38.6159 210.999 38.3724 210.616 37.8854L185.098 2.92229C184.89 2.64397 184.768 2.33087 184.733 1.98298C184.698 1.63509 184.759 1.30459 184.916 0.991491C185.072 0.678389 185.298 0.434864 185.594 0.260918C185.89 0.0869726 186.212 0 186.56 0H191.152C191.43 0 191.708 0.0608814 191.987 0.182643C192.265 0.304405 192.474 0.487048 192.613 0.730572L210.929 25.6222V1.82643C210.929 1.33938 211.103 0.913215 211.451 0.547929C211.799 0.182643 212.234 0 212.756 0H216.722ZM190.526 25.3091C191.013 25.3091 191.439 25.483 191.804 25.8309C192.169 26.1788 192.352 26.6137 192.352 27.1355V36.7895C192.352 37.2766 192.169 37.7027 191.804 38.068C191.439 38.4333 191.013 38.6159 190.526 38.6159H186.56C186.073 38.6159 185.646 38.4333 185.281 38.068C184.916 37.7027 184.733 37.2766 184.733 36.7895V27.1355C184.733 26.6137 184.916 26.1788 185.281 25.8309C185.646 25.483 186.073 25.3091 186.56 25.3091H190.526ZM230.707 0C231.229 0 231.672 0.182643 232.038 0.547929C232.403 0.913215 232.586 1.35678 232.586 1.87861V5.68802C232.586 6.20986 232.403 6.65342 232.038 7.01871C231.672 7.38399 231.229 7.56664 230.707 7.56664H225.332C224.845 7.56664 224.419 7.38399 224.054 7.01871C223.688 6.65342 223.506 6.20986 223.506 5.68802V1.87861C223.506 1.35678 223.688 0.913215 224.054 0.547929C224.419 0.182643 224.845 0 225.332 0H230.707ZM254.033 0C254.52 0 254.946 0.182643 255.312 0.547929C255.677 0.913215 255.86 1.35678 255.86 1.87861V5.68802C255.86 6.20986 255.677 6.65342 255.312 7.01871C254.946 7.38399 254.52 7.56664 254.033 7.56664H243.544V37.207C243.544 37.694 243.362 38.1202 242.996 38.4855C242.631 38.8508 242.205 39.0334 241.718 39.0334H237.7C237.178 39.0334 236.734 38.8508 236.369 38.4855C236.004 38.1202 235.821 37.694 235.821 37.207V1.87861C235.821 1.35678 236.004 0.913215 236.369 0.547929C236.734 0.182643 237.178 0 237.7 0H254.033ZM293.693 0.991491C293.867 1.30459 293.945 1.63509 293.928 1.98298C293.91 2.33087 293.797 2.64397 293.588 2.92229L279.133 23.7958V37.207C279.133 37.694 278.951 38.1202 278.586 38.4855C278.22 38.8508 277.794 39.0334 277.307 39.0334H273.289C272.767 39.0334 272.324 38.8508 271.958 38.4855C271.593 38.1202 271.41 37.694 271.41 37.207V21.9172C271.41 21.5693 271.532 21.2214 271.776 20.8735L285.709 0.782756C285.883 0.539232 286.1 0.347891 286.361 0.208735C286.622 0.0695781 286.909 0 287.222 0H292.075C292.423 0 292.745 0.0869726 293.04 0.260918C293.336 0.434864 293.554 0.678389 293.693 0.991491ZM271.723 12.4719C271.584 12.785 271.367 13.0285 271.071 13.2025C270.775 13.3764 270.454 13.4634 270.106 13.4634H265.253C264.626 13.4634 264.105 13.2025 263.687 12.6806L256.903 2.92229C256.729 2.64397 256.634 2.33087 256.616 1.98298C256.599 1.63509 256.66 1.30459 256.799 0.991491C256.938 0.678389 257.155 0.434864 257.451 0.260918C257.747 0.0869726 258.069 0 258.417 0H263.322C263.913 0 264.418 0.260919 264.835 0.782756L271.619 10.5411C271.793 10.8194 271.889 11.1325 271.906 11.4804C271.923 11.8283 271.863 12.1588 271.723 12.4719Z" fill="#393E46"/>
</g>
<defs>
<clipPath id="clip0_101_13215">
<rect width="293.93" height="39.0334" fill="white"/>
</clipPath>
</defs>
</svg>
