<svg width="48" height="48" viewBox="0 0 48 48" fill="none" xmlns="http://www.w3.org/2000/svg">
<rect width="48" height="48" rx="12" fill="#F9FAFB"/>
<path d="M24 16C30.075 16 35 18.686 35 22V26C35 29.314 30.075 32 24 32C18.033 32 13.176 29.409 13.005 26.177L13 26V22C13 18.686 17.925 16 24 16ZM24 28C20.28 28 16.99 26.993 15 25.45V26C15 27.882 18.883 30 24 30C29.01 30 32.838 27.97 32.995 26.118L33 26L33.001 25.45C31.011 26.992 27.721 28 24 28ZM24 18C18.883 18 15 20.118 15 22C15 23.882 18.883 26 24 26C29.117 26 33 23.882 33 22C33 20.118 29.117 18 24 18Z" fill="black"/>
</svg>
