<svg width="40" height="40" viewBox="0 0 40 40" fill="none" xmlns="http://www.w3.org/2000/svg">
<rect width="40" height="40" rx="12" fill="#F9FAFB"/>
<path d="M19.9995 24.1237C23.4035 24.1237 26.3808 25.3966 28 27.296L26.2878 28C24.9697 26.6421 22.6459 25.7401 19.9995 25.7401C17.3532 25.7401 15.0293 26.6421 13.7113 28L12 27.2952C13.6192 25.3958 16.5956 24.1237 19.9995 24.1237ZM19.9995 12C21.2322 12 22.4143 12.4258 23.2859 13.1836C24.1575 13.9415 24.6472 14.9694 24.6472 16.0412V18.466C24.6471 19.5073 24.1847 20.5085 23.3564 21.2607C22.5281 22.0128 21.3978 22.4579 20.2012 22.5031L19.9995 22.5072C18.7669 22.5072 17.5848 22.0814 16.7132 21.3235C15.8415 20.5657 15.3519 19.5378 15.3519 18.466V16.0412C15.352 14.9998 15.8144 13.9987 16.6427 13.2465C17.471 12.4943 18.6013 12.0492 19.7978 12.004L19.9995 12ZM19.9995 13.6165C19.2882 13.6165 18.6038 13.8528 18.0863 14.2771C17.5688 14.7013 17.2573 15.2816 17.2156 15.899L17.2109 16.0412V18.466C17.2102 19.0971 17.4926 19.7036 17.998 20.1567C18.5035 20.6097 19.1921 20.8735 19.9177 20.892C20.6433 20.9105 21.3485 20.6823 21.8837 20.2558C22.4188 19.8294 22.7416 19.2383 22.7835 18.6082L22.7881 18.466V16.0412C22.7881 15.3981 22.4943 14.7814 21.9714 14.3267C21.4484 13.872 20.7391 13.6165 19.9995 13.6165Z" fill="#203C71"/>
</svg>
