<svg width="48" height="48" viewBox="0 0 48 48" fill="none" xmlns="http://www.w3.org/2000/svg">
<rect width="48" height="48" rx="12" fill="#F9FAFB"/>
<path d="M21.7083 25.6042C21.7083 26.4934 22.3958 27.2084 23.2391 27.2084H24.9624C25.6957 27.2084 26.2916 26.585 26.2916 25.8059C26.2916 24.9717 25.9249 24.6692 25.3841 24.4767L22.6249 23.5142C22.0841 23.3217 21.7174 23.0284 21.7174 22.185C21.7174 21.415 22.3132 20.7825 23.0466 20.7825H24.7699C25.6132 20.7825 26.3008 21.4975 26.3008 22.3867" stroke="black" stroke-width="1.5" stroke-linecap="round" stroke-linejoin="round"/>
<path d="M24 19.875V28.125" stroke="black" stroke-width="1.5" stroke-linecap="round" stroke-linejoin="round"/>
<path d="M33.1666 24C33.1666 29.06 29.0599 33.1666 23.9999 33.1666C18.9399 33.1666 14.8333 29.06 14.8333 24C14.8333 18.94 18.9399 14.8333 23.9999 14.8333" stroke="black" stroke-width="1.5" stroke-linecap="round" stroke-linejoin="round"/>
<path d="M28.5833 15.75V19.4167H32.2499" stroke="black" stroke-width="1.5" stroke-linecap="round" stroke-linejoin="round"/>
<path d="M33.1666 14.8333L28.5833 19.4166" stroke="black" stroke-width="1.5" stroke-linecap="round" stroke-linejoin="round"/>
</svg>
