<svg width="259" height="92" viewBox="0 0 259 92" fill="none" xmlns="http://www.w3.org/2000/svg">
<g clip-path="url(#clip0_2_2458)">
<path fill-rule="evenodd" clip-rule="evenodd" d="M206.846 55.6106C206.697 55.2841 206.563 54.9577 206.444 54.6271C206.266 54.1313 206.155 53.6133 206.004 53.1102C205.94 52.8968 205.764 52.3428 205.753 52.2594C205.659 51.5311 206.197 51.2714 206.358 51.2078C206.435 51.1747 207.235 50.8616 207.658 51.7283C208.176 52.7879 208.547 53.8948 208.765 55.0181C209.197 55.9072 209.755 56.7582 210.388 57.4944C212.908 60.4222 216.081 59.9222 219.415 58.9958C219.927 58.8504 220.462 59.1394 220.625 59.6432C220.79 60.1508 220.527 60.699 220.028 60.8822C218.208 61.5634 215.294 63.9499 214.566 65.8168C214.414 66.2076 214.486 67.0326 214.508 67.8542C214.538 68.995 214.516 70.1374 214.292 70.675C214.259 70.7579 213.823 71.6326 213.664 71.7863C213.281 72.1524 212.884 72.1065 212.645 72.0306C212.406 71.9546 212.106 71.7591 211.9 71.3573C211.684 70.9375 211.52 70.0013 211.453 69.8094C211.208 69.1132 210.692 67.7567 210.081 66.6358C209.751 66.0323 209.425 65.4815 209.07 65.2595C207.755 64.4382 206.166 65.0371 204.839 65.5861C204.686 65.6476 204.535 65.713 204.382 65.7744C203.867 66.0896 203.305 66.3718 202.697 66.6131C201.778 66.9787 201.388 66.1484 201.365 66.093C201.313 65.9709 201.072 65.3354 201.717 64.8826C201.788 64.8348 202.33 64.5538 202.538 64.4445C202.828 64.2926 203.126 64.1551 203.426 64.0212C206.395 62.1469 207.396 58.848 206.846 55.6106ZM208.893 58.8051C210.793 61.0055 212.976 61.73 215.323 61.694L215.323 61.6941C214.142 62.7805 213.134 64.0142 212.714 65.0944C212.554 65.5036 212.508 66.2531 212.507 67.081C212.202 66.3927 211.845 65.6689 211.469 65.0696C211.041 64.3856 210.567 63.8495 210.125 63.5727C209.271 63.0397 208.333 62.8669 207.386 62.9107C208.203 61.6748 208.698 60.2739 208.893 58.8051Z" fill="#FFB9AA"/>
</g>
<g clip-path="url(#clip1_2_2458)">
<path fill-rule="evenodd" clip-rule="evenodd" d="M182.779 9.9757C182.705 9.8136 182.639 9.65154 182.58 9.48741C182.491 9.24125 182.436 8.98406 182.361 8.73426C182.33 8.62831 182.242 8.35325 182.237 8.31181C182.19 7.95022 182.457 7.82131 182.537 7.78969C182.575 7.77329 182.973 7.61785 183.182 8.04816C183.44 8.57421 183.624 9.12379 183.732 9.68152C183.947 10.123 184.224 10.5455 184.538 10.911C185.789 12.3647 187.364 12.1164 189.02 11.6565C189.274 11.5843 189.54 11.7278 189.621 11.9779C189.703 12.2299 189.572 12.5021 189.324 12.5931C188.421 12.9313 186.974 14.1162 186.613 15.0431C186.537 15.2371 186.573 15.6467 186.584 16.0546C186.598 16.6211 186.588 17.1883 186.476 17.4552C186.46 17.4964 186.243 17.9306 186.165 18.007C185.974 18.1887 185.777 18.1659 185.659 18.1282C185.54 18.0905 185.391 17.9934 185.288 17.794C185.181 17.5855 185.1 17.1207 185.067 17.0254C184.945 16.6798 184.689 16.0063 184.385 15.4497C184.222 15.1501 184.06 14.8766 183.884 14.7664C183.231 14.3586 182.442 14.656 181.783 14.9285C181.707 14.9591 181.632 14.9915 181.556 15.022C181.3 15.1785 181.021 15.3186 180.719 15.4384C180.263 15.62 180.07 15.2077 180.058 15.1802C180.032 15.1196 179.913 14.8041 180.233 14.5793C180.268 14.5555 180.537 14.416 180.64 14.3617C180.785 14.2863 180.932 14.2181 181.081 14.1516C182.555 13.221 183.052 11.5831 182.779 9.9757ZM183.796 11.5618C184.739 12.6543 185.823 13.014 186.988 12.9961L186.988 12.9962C186.402 13.5355 185.901 14.1481 185.693 14.6844C185.613 14.8876 185.591 15.2597 185.59 15.6707C185.439 15.329 185.261 14.9697 185.075 14.6721C184.862 14.3325 184.627 14.0663 184.407 13.9289C183.984 13.6642 183.518 13.5785 183.047 13.6002C183.453 12.9866 183.699 12.291 183.796 11.5618Z" fill="#AB92F0"/>
</g>
<g clip-path="url(#clip2_2_2458)">
<path fill-rule="evenodd" clip-rule="evenodd" d="M68.1748 68.3373C68.1102 68.1962 68.0523 68.0551 68.001 67.9122C67.924 67.6979 67.8761 67.474 67.8109 67.2565C67.7832 67.1643 67.7071 66.9248 67.7022 66.8887C67.6615 66.5739 67.8943 66.4617 67.9638 66.4342C67.9972 66.4199 68.3429 66.2845 68.5257 66.6592C68.7495 67.1172 68.9101 67.5957 69.0045 68.0812C69.1909 68.4656 69.4322 68.8334 69.706 69.1516C70.7952 70.4172 72.1666 70.2011 73.6078 69.8007C73.8291 69.7378 74.0603 69.8627 74.1312 70.0805C74.2024 70.2999 74.0886 70.5369 73.8728 70.6161C73.0861 70.9105 71.8268 71.9421 71.512 72.7491C71.4462 72.918 71.4772 73.2746 71.4869 73.6298C71.4998 74.123 71.4902 74.6168 71.3936 74.8491C71.3793 74.885 71.1907 75.2631 71.122 75.3295C70.9565 75.4878 70.7847 75.4679 70.6814 75.4351C70.5781 75.4023 70.4485 75.3177 70.3592 75.1441C70.2659 74.9626 70.1952 74.5579 70.1661 74.475C70.0602 74.1741 69.8372 73.5877 69.573 73.1031C69.4306 72.8423 69.2896 72.6042 69.1361 72.5082C68.5678 72.1532 67.8807 72.4121 67.3073 72.6494C67.2412 72.676 67.1757 72.7043 67.1098 72.7308C66.887 72.867 66.6443 72.989 66.3812 73.0933C65.9841 73.2514 65.8157 72.8924 65.8053 72.8685C65.783 72.8157 65.679 72.541 65.9578 72.3453C65.9884 72.3246 66.2225 72.2032 66.3125 72.1559C66.438 72.0902 66.5668 72.0308 66.6965 71.9729C67.9797 71.1627 68.4125 69.7367 68.1748 68.3373ZM69.0597 69.7182C69.8809 70.6693 70.8244 70.9826 71.839 70.967L71.8389 70.967C71.3286 71.4366 70.8928 71.9699 70.7112 72.4368C70.6422 72.6137 70.6222 72.9377 70.6218 73.2956C70.49 72.9981 70.3356 72.6852 70.1731 72.4261C69.988 72.1304 69.7833 71.8987 69.5921 71.7791C69.2232 71.5487 68.8176 71.474 68.4082 71.4929C68.7613 70.9587 68.9753 70.3531 69.0597 69.7182Z" fill="#FFCEC4"/>
</g>
<g clip-path="url(#clip3_2_2458)">
<path fill-rule="evenodd" clip-rule="evenodd" d="M43.1748 34.3373C43.1102 34.1962 43.0523 34.0551 43.001 33.9122C42.924 33.6979 42.8761 33.474 42.8109 33.2565C42.7832 33.1643 42.7071 32.9248 42.7022 32.8887C42.6615 32.5739 42.8943 32.4617 42.9638 32.4341C42.9972 32.4199 43.3429 32.2845 43.5257 32.6592C43.7495 33.1172 43.9101 33.5956 44.0045 34.0812C44.1909 34.4655 44.4322 34.8334 44.706 35.1516C45.7952 36.4172 47.1666 36.2011 48.6078 35.8007C48.8291 35.7378 49.0603 35.8627 49.1312 36.0805C49.2024 36.2999 49.0886 36.5369 48.8728 36.6161C48.0861 36.9105 46.8268 37.9421 46.512 38.7491C46.4462 38.918 46.4772 39.2746 46.4869 39.6298C46.4998 40.1229 46.4902 40.6168 46.3936 40.8491C46.3793 40.885 46.1907 41.2631 46.122 41.3295C45.9565 41.4878 45.7847 41.4679 45.6814 41.4351C45.5781 41.4023 45.4485 41.3177 45.3592 41.1441C45.2659 40.9626 45.1952 40.5579 45.1661 40.475C45.0602 40.174 44.8372 39.5877 44.573 39.1031C44.4306 38.8422 44.2896 38.6042 44.1361 38.5082C43.5678 38.1532 42.8807 38.4121 42.3073 38.6494C42.2412 38.676 42.1757 38.7042 42.1098 38.7308C41.887 38.867 41.6443 38.989 41.3812 39.0933C40.9841 39.2513 40.8157 38.8924 40.8053 38.8685C40.783 38.8157 40.679 38.541 40.9578 38.3453C40.9884 38.3246 41.2225 38.2032 41.3125 38.1559C41.438 38.0902 41.5668 38.0308 41.6965 37.9729C42.9797 37.1627 43.4125 35.7367 43.1748 34.3373ZM44.0597 35.7182C44.8809 36.6693 45.8244 36.9826 46.839 36.967L46.8389 36.967C46.3286 37.4366 45.8928 37.9699 45.7112 38.4368C45.6422 38.6137 45.6222 38.9377 45.6218 39.2956C45.49 38.9981 45.3356 38.6852 45.1731 38.4261C44.988 38.1304 44.7833 37.8987 44.5921 37.7791C44.2232 37.5487 43.8176 37.474 43.4082 37.4929C43.7613 36.9587 43.9753 36.3531 44.0597 35.7182Z" fill="#4ADE80"/>
</g>
<g clip-path="url(#clip4_2_2458)">
<path fill-rule="evenodd" clip-rule="evenodd" d="M4.17476 83.3373C4.11024 83.1962 4.05232 83.0551 4.00104 82.9122C3.92404 82.6979 3.87614 82.474 3.81093 82.2565C3.78319 82.1643 3.70709 81.9248 3.70223 81.8887C3.66149 81.5739 3.89431 81.4617 3.96383 81.4342C3.9972 81.4199 4.34291 81.2845 4.52571 81.6592C4.74953 82.1172 4.91013 82.5957 5.00446 83.0812C5.19092 83.4656 5.43224 83.8334 5.70601 84.1516C6.79519 85.4172 8.16655 85.2011 9.6078 84.8007C9.82911 84.7378 10.0603 84.8627 10.1312 85.0805C10.2024 85.2999 10.0886 85.5369 9.87275 85.6161C9.08607 85.9105 7.82675 86.9421 7.51203 87.7491C7.44622 87.918 7.47717 88.2746 7.4869 88.6298C7.49978 89.123 7.49024 89.6168 7.39355 89.8491C7.37931 89.885 7.19066 90.2631 7.12196 90.3295C6.95647 90.4878 6.78473 90.4679 6.68142 90.4351C6.57811 90.4023 6.44848 90.3177 6.35923 90.1441C6.26593 89.9626 6.19523 89.5579 6.16606 89.475C6.06016 89.1741 5.83719 88.5877 5.57297 88.1031C5.43062 87.8423 5.28957 87.6042 5.13607 87.5082C4.56783 87.1532 3.88073 87.4121 3.30728 87.6494C3.24125 87.676 3.17566 87.7043 3.1098 87.7308C2.88697 87.867 2.64429 87.989 2.38122 88.0933C1.9841 88.2514 1.81567 87.8924 1.80534 87.8685C1.78302 87.8157 1.67897 87.541 1.95777 87.3453C1.98836 87.3246 2.22245 87.2032 2.31249 87.1559C2.438 87.0902 2.56679 87.0308 2.69652 86.9729C3.97973 86.1627 4.41249 84.7367 4.17476 83.3373ZM5.05969 84.7182C5.88093 85.6693 6.82438 85.9826 7.83904 85.967L7.83888 85.967C7.32856 86.4366 6.89279 86.9699 6.71122 87.4368C6.64221 87.6137 6.62222 87.9377 6.62182 88.2956C6.48995 87.9981 6.33564 87.6852 6.17314 87.4261C5.988 87.1304 5.78333 86.8987 5.59215 86.7791C5.22319 86.5487 4.81764 86.474 4.40817 86.4929C4.76126 85.9587 4.97529 85.3531 5.05969 84.7182Z" fill="white"/>
</g>
<g clip-path="url(#clip5_2_2458)">
<path fill-rule="evenodd" clip-rule="evenodd" d="M251.674 76.937C251.617 76.8128 251.566 76.6887 251.521 76.5629C251.453 76.3743 251.411 76.1773 251.354 75.9859C251.329 75.9047 251.262 75.694 251.258 75.6623C251.222 75.3852 251.427 75.2865 251.488 75.2622C251.518 75.2497 251.822 75.1306 251.983 75.4603C252.18 75.8633 252.321 76.2843 252.404 76.7116C252.568 77.0499 252.78 77.3736 253.021 77.6536C253.98 78.7673 255.187 78.5771 256.455 78.2247C256.65 78.1694 256.853 78.2794 256.915 78.471C256.978 78.6641 256.878 78.8726 256.688 78.9423C255.996 79.2014 254.888 80.1092 254.611 80.8194C254.553 80.968 254.58 81.2818 254.588 81.5944C254.6 82.0283 254.591 82.4629 254.506 82.6674C254.494 82.6989 254.328 83.0316 254.267 83.0901C254.122 83.2294 253.971 83.2119 253.88 83.183C253.789 83.1541 253.675 83.0797 253.596 82.9269C253.514 82.7672 253.452 82.4111 253.426 82.3381C253.333 82.0733 253.137 81.5573 252.904 81.1309C252.779 80.9013 252.655 80.6918 252.52 80.6074C252.02 80.295 251.415 80.5228 250.91 80.7316C250.852 80.755 250.795 80.7799 250.737 80.8032C250.541 80.9231 250.327 81.0305 250.096 81.1223C249.746 81.2613 249.598 80.9455 249.589 80.9244C249.569 80.878 249.478 80.6363 249.723 80.464C249.75 80.4458 249.956 80.3389 250.035 80.2974C250.145 80.2396 250.259 80.1873 250.373 80.1363C251.502 79.4234 251.883 78.1685 251.674 76.937ZM252.453 78.1522C253.175 78.9892 254.005 79.2648 254.898 79.2511L254.898 79.2511C254.449 79.6644 254.066 80.1337 253.906 80.5446C253.845 80.7002 253.828 80.9853 253.827 81.3002C253.711 81.0384 253.575 80.7631 253.432 80.5351C253.269 80.2749 253.089 80.071 252.921 79.9657C252.596 79.763 252.24 79.6973 251.879 79.7139C252.19 79.2438 252.378 78.7109 252.453 78.1522Z" fill="white"/>
</g>
<circle cx="100" cy="36" r="2.5" stroke="white"/>
<circle opacity="0.5" cx="119" cy="2" r="1.5" stroke="white"/>
<defs>
<clipPath id="clip0_2_2458">
<rect width="22.2734" height="22.2734" fill="white" transform="translate(197.188 53.6543) rotate(-15)"/>
</clipPath>
<clipPath id="clip1_2_2458">
<rect width="11.0587" height="11.0587" fill="white" transform="translate(177.984 9.00439) rotate(-15)"/>
</clipPath>
<clipPath id="clip2_2_2458">
<rect width="9.62799" height="9.62799" fill="white" transform="translate(64 67.4917) rotate(-15)"/>
</clipPath>
<clipPath id="clip3_2_2458">
<rect width="9.62799" height="9.62799" fill="white" transform="translate(39 33.4917) rotate(-15)"/>
</clipPath>
<clipPath id="clip4_2_2458">
<rect width="9.62799" height="9.62799" fill="white" transform="translate(0 82.4917) rotate(-15)"/>
</clipPath>
<clipPath id="clip5_2_2458">
<rect width="8.47256" height="8.47256" fill="white" transform="translate(248 76.1929) rotate(-15)"/>
</clipPath>
</defs>
</svg>
